<svg width="25" height="24" viewBox="0 0 25 24" fill="none" xmlns="http://www.w3.org/2000/svg">
<path d="M10.301 0C9.20655 0 8.30445 0.650625 8.30445 1.44V2.4H3.10504C3.02185 2.38875 2.93866 2.38875 2.85547 2.4H1.6492C1.62841 2.4 1.60761 2.4 1.58681 2.4C1.22025 2.41313 0.934285 2.63813 0.952483 2.9025C0.970681 3.16687 1.28265 3.37313 1.6492 3.36H2.37712L4.76885 22.8C4.85204 23.4712 5.64495 24 6.57824 24H19.348C20.2813 24 21.0742 23.4712 21.1574 22.8L23.5491 3.36H24.277C24.5162 3.36187 24.7398 3.27187 24.862 3.12187C24.9816 2.97187 24.9816 2.78813 24.862 2.63813C24.7398 2.48813 24.5162 2.39813 24.277 2.4H17.6218V1.44C17.6218 0.650625 16.7197 0 15.6252 0H10.301ZM10.301 0.96H15.6252C15.9996 0.96 16.2907 1.17 16.2907 1.44V2.4H9.6355V1.44C9.6355 1.17 9.92666 0.96 10.301 0.96ZM3.70817 3.36H22.2181L19.8263 22.725C19.8055 22.8919 19.5586 23.04 19.348 23.04H6.57824C6.36767 23.04 6.1207 22.8919 6.0999 22.725L3.70817 3.36ZM8.90758 4.785C8.87898 4.78875 8.85039 4.79437 8.82439 4.8C8.51502 4.85063 8.29665 5.05125 8.30445 5.28V21.12C8.30185 21.2925 8.42663 21.4537 8.63461 21.5419C8.84259 21.6281 9.09736 21.6281 9.30533 21.5419C9.51331 21.4537 9.6381 21.2925 9.6355 21.12V5.28C9.6433 5.14125 9.56531 5.00813 9.42752 4.91437C9.28714 4.81875 9.09736 4.77187 8.90758 4.785ZM12.9007 4.785C12.8721 4.78875 12.8435 4.79437 12.8175 4.8C12.5082 4.85063 12.2898 5.05125 12.2976 5.28V21.12C12.295 21.2925 12.4198 21.4537 12.6278 21.5419C12.8357 21.6281 13.0905 21.6281 13.2985 21.5419C13.5065 21.4537 13.6312 21.2925 13.6286 21.12V5.28C13.6364 5.14125 13.5585 5.00813 13.4207 4.91437C13.2803 4.81875 13.0905 4.77187 12.9007 4.785ZM16.8939 4.785C16.8653 4.78875 16.8367 4.79437 16.8107 4.8C16.5013 4.85063 16.2829 5.05125 16.2907 5.28V21.12C16.2881 21.2925 16.4129 21.4537 16.6209 21.5419C16.8289 21.6281 17.0837 21.6281 17.2916 21.5419C17.4996 21.4537 17.6244 21.2925 17.6218 21.12V5.28C17.6296 5.14125 17.5516 5.00813 17.4138 4.91437C17.2734 4.81875 17.0837 4.77187 16.8939 4.785Z" fill="#A6A9AC"/>
</svg>
