<svg width="333" height="76" viewBox="0 0 333 76" fill="none" xmlns="http://www.w3.org/2000/svg">
<path d="M273.485 18.5544L275.745 33.4745L103.135 75.5718L96.2536 30.1334L273.485 18.5544Z" fill="#42BC00"/>
<path d="M12.452 3.754V6.152H7.766V19H4.972V6.152H0.286V3.754H12.452ZM20.1953 9.892C19.9753 9.81867 19.6673 9.74533 19.2713 9.672C18.89 9.584 18.4426 9.54 17.9293 9.54C17.636 9.54 17.3206 9.56933 16.9833 9.628C16.6606 9.68667 16.4333 9.738 16.3013 9.782V19H13.6393V8.044C14.1526 7.85333 14.7906 7.67733 15.5533 7.516C16.3306 7.34 17.1886 7.252 18.1273 7.252C18.3033 7.252 18.5086 7.26667 18.7433 7.296C18.978 7.31067 19.2126 7.34 19.4473 7.384C19.682 7.41333 19.9093 7.45733 20.1293 7.516C20.3493 7.56 20.5253 7.604 20.6573 7.648L20.1953 9.892ZM26.5604 17.13C27.3817 17.13 28.005 17.086 28.4304 16.998V14.05C28.2837 14.006 28.071 13.962 27.7924 13.918C27.5137 13.874 27.2057 13.852 26.8684 13.852C26.575 13.852 26.2744 13.874 25.9664 13.918C25.673 13.962 25.4017 14.0427 25.1524 14.16C24.9177 14.2773 24.727 14.446 24.5804 14.666C24.4337 14.8713 24.3604 15.1353 24.3604 15.458C24.3604 16.0887 24.5584 16.5287 24.9544 16.778C25.3504 17.0127 25.8857 17.13 26.5604 17.13ZM26.3404 7.208C27.2204 7.208 27.961 7.318 28.5624 7.538C29.1637 7.758 29.6404 8.066 29.9924 8.462C30.359 8.858 30.6157 9.342 30.7624 9.914C30.9237 10.4713 31.0044 11.0873 31.0044 11.762V18.736C30.5937 18.824 29.9704 18.9267 29.1344 19.044C28.313 19.176 27.3817 19.242 26.3404 19.242C25.651 19.242 25.0204 19.176 24.4484 19.044C23.8764 18.912 23.385 18.6993 22.9744 18.406C22.5784 18.1127 22.263 17.7313 22.0284 17.262C21.8084 16.7927 21.6984 16.2133 21.6984 15.524C21.6984 14.864 21.823 14.3067 22.0724 13.852C22.3364 13.3973 22.6884 13.0307 23.1284 12.752C23.5684 12.4587 24.0744 12.2533 24.6464 12.136C25.233 12.004 25.8417 11.938 26.4724 11.938C26.7657 11.938 27.0737 11.96 27.3964 12.004C27.719 12.0333 28.0637 12.092 28.4304 12.18V11.74C28.4304 11.432 28.3937 11.1387 28.3204 10.86C28.247 10.5813 28.115 10.3393 27.9244 10.134C27.7484 9.914 27.5064 9.74533 27.1984 9.628C26.905 9.51067 26.531 9.452 26.0764 9.452C25.4604 9.452 24.8957 9.496 24.3824 9.584C23.869 9.672 23.451 9.77467 23.1284 9.892L22.7984 7.736C23.1357 7.61867 23.627 7.50133 24.2724 7.384C24.9177 7.26667 25.607 7.208 26.3404 7.208ZM34.2643 7.868C34.7776 7.72133 35.445 7.582 36.2663 7.45C37.0876 7.318 37.997 7.252 38.9943 7.252C39.933 7.252 40.7176 7.384 41.3483 7.648C41.979 7.89733 42.4776 8.25667 42.8443 8.726C43.2256 9.18067 43.4896 9.738 43.6363 10.398C43.7976 11.0433 43.8783 11.7547 43.8783 12.532V19H41.2163V12.95C41.2163 12.334 41.1723 11.8133 41.0843 11.388C41.011 10.948 40.879 10.596 40.6883 10.332C40.5123 10.0533 40.263 9.85533 39.9403 9.738C39.6323 9.606 39.251 9.54 38.7963 9.54C38.459 9.54 38.107 9.562 37.7403 9.606C37.3736 9.65 37.1023 9.68667 36.9263 9.716V19H34.2643V7.868ZM50.0155 17.086C50.7195 17.086 51.2328 17.0053 51.5555 16.844C51.8781 16.668 52.0395 16.3747 52.0395 15.964C52.0395 15.5827 51.8635 15.2673 51.5115 15.018C51.1741 14.7687 50.6095 14.4973 49.8175 14.204C49.3335 14.028 48.8861 13.8447 48.4755 13.654C48.0795 13.4487 47.7348 13.214 47.4415 12.95C47.1481 12.686 46.9135 12.3707 46.7375 12.004C46.5761 11.6227 46.4955 11.1607 46.4955 10.618C46.4955 9.562 46.8841 8.73333 47.6615 8.132C48.4388 7.516 49.4948 7.208 50.8295 7.208C51.5041 7.208 52.1495 7.274 52.7655 7.406C53.3815 7.52333 53.8435 7.64067 54.1515 7.758L53.6675 9.914C53.3741 9.782 53.0001 9.66467 52.5455 9.562C52.0908 9.44467 51.5628 9.386 50.9615 9.386C50.4188 9.386 49.9788 9.48133 49.6415 9.672C49.3041 9.848 49.1355 10.1267 49.1355 10.508C49.1355 10.6987 49.1648 10.8673 49.2235 11.014C49.2968 11.1607 49.4141 11.3 49.5755 11.432C49.7368 11.5493 49.9495 11.674 50.2135 11.806C50.4775 11.9233 50.8001 12.048 51.1815 12.18C51.8121 12.4147 52.3475 12.6493 52.7875 12.884C53.2275 13.104 53.5868 13.3607 53.8655 13.654C54.1588 13.9327 54.3715 14.2553 54.5035 14.622C54.6355 14.9887 54.7015 15.4287 54.7015 15.942C54.7015 17.042 54.2908 17.878 53.4695 18.45C52.6628 19.0073 51.5041 19.286 49.9935 19.286C48.9815 19.286 48.1675 19.198 47.5515 19.022C46.9355 18.8607 46.5028 18.7287 46.2535 18.626L46.7155 16.404C47.1115 16.5653 47.5808 16.7193 48.1235 16.866C48.6808 17.0127 49.3115 17.086 50.0155 17.086ZM61.8741 1.928C62.4901 1.928 63.0328 1.98667 63.5021 2.104C63.9715 2.20667 64.3235 2.302 64.5581 2.39L64.0521 4.59C63.8028 4.47267 63.5095 4.37733 63.1721 4.304C62.8495 4.23067 62.4975 4.194 62.1161 4.194C61.6908 4.194 61.3315 4.26 61.0381 4.392C60.7448 4.50933 60.5101 4.678 60.3341 4.898C60.1581 5.118 60.0335 5.38933 59.9601 5.712C59.8868 6.02 59.8501 6.35733 59.8501 6.724V7.494H64.0301V9.716H59.8501V19H57.1881V6.68C57.1881 5.19867 57.5768 4.04 58.3541 3.204C59.1315 2.35333 60.3048 1.928 61.8741 1.928ZM76.1879 13.236C76.1879 14.1453 76.0559 14.974 75.7919 15.722C75.5279 16.47 75.1539 17.108 74.6699 17.636C74.1859 18.164 73.5992 18.5747 72.9099 18.868C72.2352 19.1613 71.4872 19.308 70.6659 19.308C69.8446 19.308 69.0966 19.1613 68.4219 18.868C67.7472 18.5747 67.1679 18.164 66.6839 17.636C66.1999 17.108 65.8186 16.47 65.5399 15.722C65.2759 14.974 65.1439 14.1453 65.1439 13.236C65.1439 12.3267 65.2759 11.5053 65.5399 10.772C65.8186 10.024 66.1999 9.386 66.6839 8.858C67.1826 8.33 67.7692 7.92667 68.4439 7.648C69.1186 7.35467 69.8592 7.208 70.6659 7.208C71.4726 7.208 72.2132 7.35467 72.8879 7.648C73.5772 7.92667 74.1639 8.33 74.6479 8.858C75.1319 9.386 75.5059 10.024 75.7699 10.772C76.0486 11.5053 76.1879 12.3267 76.1879 13.236ZM73.4599 13.236C73.4599 12.092 73.2106 11.19 72.7119 10.53C72.2279 9.85533 71.5459 9.518 70.6659 9.518C69.7859 9.518 69.0966 9.85533 68.5979 10.53C68.1139 11.19 67.8719 12.092 67.8719 13.236C67.8719 14.3947 68.1139 15.3113 68.5979 15.986C69.0966 16.6607 69.7859 16.998 70.6659 16.998C71.5459 16.998 72.2279 16.6607 72.7119 15.986C73.2106 15.3113 73.4599 14.3947 73.4599 13.236ZM85.4863 9.892C85.2663 9.81867 84.9583 9.74533 84.5623 9.672C84.181 9.584 83.7337 9.54 83.2203 9.54C82.927 9.54 82.6117 9.56933 82.2743 9.628C81.9517 9.68667 81.7243 9.738 81.5923 9.782V19H78.9303V8.044C79.4437 7.85333 80.0817 7.67733 80.8443 7.516C81.6217 7.34 82.4797 7.252 83.4183 7.252C83.5943 7.252 83.7997 7.26667 84.0343 7.296C84.269 7.31067 84.5037 7.34 84.7383 7.384C84.973 7.41333 85.2003 7.45733 85.4203 7.516C85.6403 7.56 85.8163 7.604 85.9483 7.648L85.4863 9.892ZM94.3594 12.95C94.3594 11.7473 94.2054 10.882 93.8974 10.354C93.604 9.81133 93.0467 9.54 92.2254 9.54C91.932 9.54 91.6094 9.562 91.2574 9.606C90.9054 9.65 90.6414 9.68667 90.4654 9.716V19H87.8034V7.868C88.3167 7.72133 88.984 7.582 89.8054 7.45C90.6414 7.318 91.5214 7.252 92.4454 7.252C93.2374 7.252 93.8827 7.35467 94.3814 7.56C94.8947 7.76533 95.32 8.03667 95.6574 8.374C95.8187 8.25667 96.024 8.132 96.2734 8C96.5227 7.868 96.8014 7.75067 97.1094 7.648C97.4174 7.53067 97.74 7.43533 98.0774 7.362C98.4294 7.28867 98.7814 7.252 99.1334 7.252C100.028 7.252 100.761 7.384 101.333 7.648C101.92 7.89733 102.375 8.25667 102.697 8.726C103.035 9.18067 103.262 9.738 103.379 10.398C103.511 11.0433 103.577 11.7547 103.577 12.532V19H100.915V12.95C100.915 11.7473 100.769 10.882 100.475 10.354C100.182 9.81133 99.6174 9.54 98.7814 9.54C98.356 9.54 97.9527 9.61333 97.5714 9.76C97.19 9.892 96.904 10.024 96.7134 10.156C96.8307 10.5227 96.9114 10.9113 96.9554 11.322C96.9994 11.7327 97.0214 12.1727 97.0214 12.642V19H94.3594V12.95ZM121.367 7.494C120.179 11.8647 118.801 15.8247 117.231 19.374C116.938 20.034 116.637 20.5987 116.329 21.068C116.021 21.5373 115.677 21.926 115.295 22.234C114.914 22.542 114.489 22.762 114.019 22.894C113.55 23.0407 113.007 23.114 112.391 23.114C111.981 23.114 111.57 23.07 111.159 22.982C110.763 22.894 110.463 22.7987 110.257 22.696L110.741 20.562C111.269 20.7673 111.79 20.87 112.303 20.87C112.993 20.87 113.528 20.7013 113.909 20.364C114.305 20.0413 114.65 19.5353 114.943 18.846C114.107 17.2327 113.301 15.4727 112.523 13.566C111.761 11.6593 111.079 9.63533 110.477 7.494H113.315C113.462 8.11 113.638 8.77733 113.843 9.496C114.063 10.2147 114.298 10.948 114.547 11.696C114.797 12.4293 115.061 13.1627 115.339 13.896C115.618 14.6293 115.897 15.3113 116.175 15.942C116.645 14.6367 117.085 13.2507 117.495 11.784C117.906 10.3027 118.28 8.87267 118.617 7.494H121.367ZM133.788 13.236C133.788 14.1453 133.656 14.974 133.392 15.722C133.128 16.47 132.754 17.108 132.27 17.636C131.786 18.164 131.199 18.5747 130.51 18.868C129.835 19.1613 129.087 19.308 128.266 19.308C127.444 19.308 126.696 19.1613 126.022 18.868C125.347 18.5747 124.768 18.164 124.284 17.636C123.8 17.108 123.418 16.47 123.139 15.722C122.876 14.974 122.744 14.1453 122.744 13.236C122.744 12.3267 122.876 11.5053 123.139 10.772C123.418 10.024 123.8 9.386 124.284 8.858C124.782 8.33 125.369 7.92667 126.044 7.648C126.718 7.35467 127.459 7.208 128.266 7.208C129.072 7.208 129.813 7.35467 130.488 7.648C131.177 7.92667 131.764 8.33 132.248 8.858C132.732 9.386 133.106 10.024 133.37 10.772C133.648 11.5053 133.788 12.3267 133.788 13.236ZM131.06 13.236C131.06 12.092 130.81 11.19 130.312 10.53C129.828 9.85533 129.146 9.518 128.266 9.518C127.386 9.518 126.696 9.85533 126.198 10.53C125.714 11.19 125.472 12.092 125.472 13.236C125.472 14.3947 125.714 15.3113 126.198 15.986C126.696 16.6607 127.386 16.998 128.266 16.998C129.146 16.998 129.828 16.6607 130.312 15.986C130.81 15.3113 131.06 14.3947 131.06 13.236ZM145.968 18.648C145.455 18.78 144.787 18.912 143.966 19.044C143.145 19.1907 142.243 19.264 141.26 19.264C140.336 19.264 139.559 19.132 138.928 18.868C138.312 18.604 137.813 18.2373 137.432 17.768C137.065 17.2987 136.801 16.7413 136.64 16.096C136.479 15.436 136.398 14.7173 136.398 13.94V7.494H139.06V13.522C139.06 14.754 139.236 15.634 139.588 16.162C139.955 16.69 140.585 16.954 141.48 16.954C141.803 16.954 142.14 16.9393 142.492 16.91C142.859 16.8807 143.13 16.844 143.306 16.8V7.494H145.968V18.648ZM155.912 9.892C155.692 9.81867 155.384 9.74533 154.988 9.672C154.607 9.584 154.159 9.54 153.646 9.54C153.353 9.54 153.037 9.56933 152.7 9.628C152.377 9.68667 152.15 9.738 152.018 9.782V19H149.356V8.044C149.869 7.85333 150.507 7.67733 151.27 7.516C152.047 7.34 152.905 7.252 153.844 7.252C154.02 7.252 154.225 7.26667 154.46 7.296C154.695 7.31067 154.929 7.34 155.164 7.384C155.399 7.41333 155.626 7.45733 155.846 7.516C156.066 7.56 156.242 7.604 156.374 7.648L155.912 9.892ZM162.726 13.258C162.726 12.4073 162.858 11.6153 163.122 10.882C163.386 10.134 163.76 9.48867 164.244 8.946C164.743 8.40333 165.344 7.978 166.048 7.67C166.752 7.362 167.544 7.208 168.424 7.208C169.509 7.208 170.536 7.406 171.504 7.802L170.932 9.98C170.624 9.848 170.272 9.738 169.876 9.65C169.495 9.562 169.084 9.518 168.644 9.518C167.603 9.518 166.811 9.848 166.268 10.508C165.725 11.1533 165.454 12.07 165.454 13.258C165.454 14.402 165.711 15.3113 166.224 15.986C166.737 16.646 167.603 16.976 168.82 16.976C169.275 16.976 169.722 16.932 170.162 16.844C170.602 16.756 170.983 16.646 171.306 16.514L171.68 18.714C171.387 18.8607 170.939 18.9927 170.338 19.11C169.751 19.2273 169.143 19.286 168.512 19.286C167.529 19.286 166.671 19.1393 165.938 18.846C165.219 18.538 164.618 18.12 164.134 17.592C163.665 17.0493 163.313 16.4113 163.078 15.678C162.843 14.93 162.726 14.1233 162.726 13.258ZM177.745 19.22C176.953 19.2053 176.293 19.1173 175.765 18.956C175.252 18.7947 174.841 18.5673 174.533 18.274C174.225 17.966 174.005 17.592 173.873 17.152C173.756 16.6973 173.697 16.184 173.697 15.612V2.368L176.359 1.928V15.106C176.359 15.4287 176.381 15.7 176.425 15.92C176.484 16.14 176.579 16.3307 176.711 16.492C176.843 16.6387 177.019 16.756 177.239 16.844C177.474 16.9173 177.767 16.976 178.119 17.02L177.745 19.22ZM184.32 17.13C185.141 17.13 185.765 17.086 186.19 16.998V14.05C186.043 14.006 185.831 13.962 185.552 13.918C185.273 13.874 184.965 13.852 184.628 13.852C184.335 13.852 184.034 13.874 183.726 13.918C183.433 13.962 183.161 14.0427 182.912 14.16C182.677 14.2773 182.487 14.446 182.34 14.666C182.193 14.8713 182.12 15.1353 182.12 15.458C182.12 16.0887 182.318 16.5287 182.714 16.778C183.11 17.0127 183.645 17.13 184.32 17.13ZM184.1 7.208C184.98 7.208 185.721 7.318 186.322 7.538C186.923 7.758 187.4 8.066 187.752 8.462C188.119 8.858 188.375 9.342 188.522 9.914C188.683 10.4713 188.764 11.0873 188.764 11.762V18.736C188.353 18.824 187.73 18.9267 186.894 19.044C186.073 19.176 185.141 19.242 184.1 19.242C183.411 19.242 182.78 19.176 182.208 19.044C181.636 18.912 181.145 18.6993 180.734 18.406C180.338 18.1127 180.023 17.7313 179.788 17.262C179.568 16.7927 179.458 16.2133 179.458 15.524C179.458 14.864 179.583 14.3067 179.832 13.852C180.096 13.3973 180.448 13.0307 180.888 12.752C181.328 12.4587 181.834 12.2533 182.406 12.136C182.993 12.004 183.601 11.938 184.232 11.938C184.525 11.938 184.833 11.96 185.156 12.004C185.479 12.0333 185.823 12.092 186.19 12.18V11.74C186.19 11.432 186.153 11.1387 186.08 10.86C186.007 10.5813 185.875 10.3393 185.684 10.134C185.508 9.914 185.266 9.74533 184.958 9.628C184.665 9.51067 184.291 9.452 183.836 9.452C183.22 9.452 182.655 9.496 182.142 9.584C181.629 9.672 181.211 9.77467 180.888 9.892L180.558 7.736C180.895 7.61867 181.387 7.50133 182.032 7.384C182.677 7.26667 183.367 7.208 184.1 7.208ZM194.906 17.086C195.61 17.086 196.123 17.0053 196.446 16.844C196.769 16.668 196.93 16.3747 196.93 15.964C196.93 15.5827 196.754 15.2673 196.402 15.018C196.065 14.7687 195.5 14.4973 194.708 14.204C194.224 14.028 193.777 13.8447 193.366 13.654C192.97 13.4487 192.625 13.214 192.332 12.95C192.039 12.686 191.804 12.3707 191.628 12.004C191.467 11.6227 191.386 11.1607 191.386 10.618C191.386 9.562 191.775 8.73333 192.552 8.132C193.329 7.516 194.385 7.208 195.72 7.208C196.395 7.208 197.04 7.274 197.656 7.406C198.272 7.52333 198.734 7.64067 199.042 7.758L198.558 9.914C198.265 9.782 197.891 9.66467 197.436 9.562C196.981 9.44467 196.453 9.386 195.852 9.386C195.309 9.386 194.869 9.48133 194.532 9.672C194.195 9.848 194.026 10.1267 194.026 10.508C194.026 10.6987 194.055 10.8673 194.114 11.014C194.187 11.1607 194.305 11.3 194.466 11.432C194.627 11.5493 194.84 11.674 195.104 11.806C195.368 11.9233 195.691 12.048 196.072 12.18C196.703 12.4147 197.238 12.6493 197.678 12.884C198.118 13.104 198.477 13.3607 198.756 13.654C199.049 13.9327 199.262 14.2553 199.394 14.622C199.526 14.9887 199.592 15.4287 199.592 15.942C199.592 17.042 199.181 17.878 198.36 18.45C197.553 19.0073 196.395 19.286 194.884 19.286C193.872 19.286 193.058 19.198 192.442 19.022C191.826 18.8607 191.393 18.7287 191.144 18.626L191.606 16.404C192.002 16.5653 192.471 16.7193 193.014 16.866C193.571 17.0127 194.202 17.086 194.906 17.086ZM204.961 17.086C205.665 17.086 206.178 17.0053 206.501 16.844C206.823 16.668 206.985 16.3747 206.985 15.964C206.985 15.5827 206.809 15.2673 206.457 15.018C206.119 14.7687 205.555 14.4973 204.763 14.204C204.279 14.028 203.831 13.8447 203.421 13.654C203.025 13.4487 202.68 13.214 202.387 12.95C202.093 12.686 201.859 12.3707 201.683 12.004C201.521 11.6227 201.441 11.1607 201.441 10.618C201.441 9.562 201.829 8.73333 202.607 8.132C203.384 7.516 204.44 7.208 205.775 7.208C206.449 7.208 207.095 7.274 207.711 7.406C208.327 7.52333 208.789 7.64067 209.097 7.758L208.613 9.914C208.319 9.782 207.945 9.66467 207.491 9.562C207.036 9.44467 206.508 9.386 205.907 9.386C205.364 9.386 204.924 9.48133 204.587 9.672C204.249 9.848 204.081 10.1267 204.081 10.508C204.081 10.6987 204.11 10.8673 204.169 11.014C204.242 11.1607 204.359 11.3 204.521 11.432C204.682 11.5493 204.895 11.674 205.159 11.806C205.423 11.9233 205.745 12.048 206.127 12.18C206.757 12.4147 207.293 12.6493 207.733 12.884C208.173 13.104 208.532 13.3607 208.811 13.654C209.104 13.9327 209.317 14.2553 209.449 14.622C209.581 14.9887 209.647 15.4287 209.647 15.942C209.647 17.042 209.236 17.878 208.415 18.45C207.608 19.0073 206.449 19.286 204.939 19.286C203.927 19.286 203.113 19.198 202.497 19.022C201.881 18.8607 201.448 18.7287 201.199 18.626L201.661 16.404C202.057 16.5653 202.526 16.7193 203.069 16.866C203.626 17.0127 204.257 17.086 204.961 17.086ZM218.689 9.892C218.469 9.81867 218.161 9.74533 217.765 9.672C217.384 9.584 216.937 9.54 216.423 9.54C216.13 9.54 215.815 9.56933 215.477 9.628C215.155 9.68667 214.927 9.738 214.795 9.782V19H212.133V8.044C212.647 7.85333 213.285 7.67733 214.047 7.516C214.825 7.34 215.683 7.252 216.621 7.252C216.797 7.252 217.003 7.26667 217.237 7.296C217.472 7.31067 217.707 7.34 217.941 7.384C218.176 7.41333 218.403 7.45733 218.623 7.516C218.843 7.56 219.019 7.604 219.151 7.648L218.689 9.892ZM231.413 13.236C231.413 14.1453 231.281 14.974 231.017 15.722C230.753 16.47 230.379 17.108 229.895 17.636C229.411 18.164 228.824 18.5747 228.135 18.868C227.46 19.1613 226.712 19.308 225.891 19.308C225.069 19.308 224.321 19.1613 223.647 18.868C222.972 18.5747 222.393 18.164 221.909 17.636C221.425 17.108 221.043 16.47 220.764 15.722C220.501 14.974 220.369 14.1453 220.369 13.236C220.369 12.3267 220.501 11.5053 220.764 10.772C221.043 10.024 221.425 9.386 221.909 8.858C222.407 8.33 222.994 7.92667 223.669 7.648C224.343 7.35467 225.084 7.208 225.891 7.208C226.697 7.208 227.438 7.35467 228.113 7.648C228.802 7.92667 229.389 8.33 229.873 8.858C230.357 9.386 230.731 10.024 230.995 10.772C231.273 11.5053 231.413 12.3267 231.413 13.236ZM228.685 13.236C228.685 12.092 228.435 11.19 227.937 10.53C227.453 9.85533 226.771 9.518 225.891 9.518C225.011 9.518 224.321 9.85533 223.823 10.53C223.339 11.19 223.097 12.092 223.097 13.236C223.097 14.3947 223.339 15.3113 223.823 15.986C224.321 16.6607 225.011 16.998 225.891 16.998C226.771 16.998 227.453 16.6607 227.937 15.986C228.435 15.3113 228.685 14.3947 228.685 13.236ZM244.561 13.236C244.561 14.1453 244.429 14.974 244.165 15.722C243.901 16.47 243.527 17.108 243.043 17.636C242.559 18.164 241.972 18.5747 241.283 18.868C240.608 19.1613 239.86 19.308 239.039 19.308C238.218 19.308 237.47 19.1613 236.795 18.868C236.12 18.5747 235.541 18.164 235.057 17.636C234.573 17.108 234.192 16.47 233.913 15.722C233.649 14.974 233.517 14.1453 233.517 13.236C233.517 12.3267 233.649 11.5053 233.913 10.772C234.192 10.024 234.573 9.386 235.057 8.858C235.556 8.33 236.142 7.92667 236.817 7.648C237.492 7.35467 238.232 7.208 239.039 7.208C239.846 7.208 240.586 7.35467 241.261 7.648C241.95 7.92667 242.537 8.33 243.021 8.858C243.505 9.386 243.879 10.024 244.143 10.772C244.422 11.5053 244.561 12.3267 244.561 13.236ZM241.833 13.236C241.833 12.092 241.584 11.19 241.085 10.53C240.601 9.85533 239.919 9.518 239.039 9.518C238.159 9.518 237.47 9.85533 236.971 10.53C236.487 11.19 236.245 12.092 236.245 13.236C236.245 14.3947 236.487 15.3113 236.971 15.986C237.47 16.6607 238.159 16.998 239.039 16.998C239.919 16.998 240.601 16.6607 241.085 15.986C241.584 15.3113 241.833 14.3947 241.833 13.236ZM253.859 12.95C253.859 11.7473 253.705 10.882 253.397 10.354C253.104 9.81133 252.547 9.54 251.725 9.54C251.432 9.54 251.109 9.562 250.757 9.606C250.405 9.65 250.141 9.68667 249.965 9.716V19H247.303V7.868C247.817 7.72133 248.484 7.582 249.305 7.45C250.141 7.318 251.021 7.252 251.945 7.252C252.737 7.252 253.383 7.35467 253.881 7.56C254.395 7.76533 254.82 8.03667 255.157 8.374C255.319 8.25667 255.524 8.132 255.773 8C256.023 7.868 256.301 7.75067 256.609 7.648C256.917 7.53067 257.24 7.43533 257.577 7.362C257.929 7.28867 258.281 7.252 258.633 7.252C259.528 7.252 260.261 7.384 260.833 7.648C261.42 7.89733 261.875 8.25667 262.197 8.726C262.535 9.18067 262.762 9.738 262.879 10.398C263.011 11.0433 263.077 11.7547 263.077 12.532V19H260.415V12.95C260.415 11.7473 260.269 10.882 259.975 10.354C259.682 9.81133 259.117 9.54 258.281 9.54C257.856 9.54 257.453 9.61333 257.071 9.76C256.69 9.892 256.404 10.024 256.213 10.156C256.331 10.5227 256.411 10.9113 256.455 11.322C256.499 11.7327 256.521 12.1727 256.521 12.642V19H253.859V12.95ZM275.521 17.13C276.343 17.13 276.966 17.086 277.391 16.998V14.05C277.245 14.006 277.032 13.962 276.753 13.918C276.475 13.874 276.167 13.852 275.829 13.852C275.536 13.852 275.235 13.874 274.927 13.918C274.634 13.962 274.363 14.0427 274.113 14.16C273.879 14.2773 273.688 14.446 273.541 14.666C273.395 14.8713 273.321 15.1353 273.321 15.458C273.321 16.0887 273.519 16.5287 273.915 16.778C274.311 17.0127 274.847 17.13 275.521 17.13ZM275.301 7.208C276.181 7.208 276.922 7.318 277.523 7.538C278.125 7.758 278.601 8.066 278.953 8.462C279.32 8.858 279.577 9.342 279.723 9.914C279.885 10.4713 279.965 11.0873 279.965 11.762V18.736C279.555 18.824 278.931 18.9267 278.095 19.044C277.274 19.176 276.343 19.242 275.301 19.242C274.612 19.242 273.981 19.176 273.409 19.044C272.837 18.912 272.346 18.6993 271.935 18.406C271.539 18.1127 271.224 17.7313 270.989 17.262C270.769 16.7927 270.659 16.2133 270.659 15.524C270.659 14.864 270.784 14.3067 271.033 13.852C271.297 13.3973 271.649 13.0307 272.089 12.752C272.529 12.4587 273.035 12.2533 273.607 12.136C274.194 12.004 274.803 11.938 275.433 11.938C275.727 11.938 276.035 11.96 276.357 12.004C276.68 12.0333 277.025 12.092 277.391 12.18V11.74C277.391 11.432 277.355 11.1387 277.281 10.86C277.208 10.5813 277.076 10.3393 276.885 10.134C276.709 9.914 276.467 9.74533 276.159 9.628C275.866 9.51067 275.492 9.452 275.037 9.452C274.421 9.452 273.857 9.496 273.343 9.584C272.83 9.672 272.412 9.77467 272.089 9.892L271.759 7.736C272.097 7.61867 272.588 7.50133 273.233 7.384C273.879 7.26667 274.568 7.208 275.301 7.208ZM283.225 7.868C283.739 7.72133 284.406 7.582 285.227 7.45C286.049 7.318 286.958 7.252 287.955 7.252C288.894 7.252 289.679 7.384 290.309 7.648C290.94 7.89733 291.439 8.25667 291.805 8.726C292.187 9.18067 292.451 9.738 292.597 10.398C292.759 11.0433 292.839 11.7547 292.839 12.532V19H290.177V12.95C290.177 12.334 290.133 11.8133 290.045 11.388C289.972 10.948 289.84 10.596 289.649 10.332C289.473 10.0533 289.224 9.85533 288.901 9.738C288.593 9.606 288.212 9.54 287.757 9.54C287.42 9.54 287.068 9.562 286.701 9.606C286.335 9.65 286.063 9.68667 285.887 9.716V19H283.225V7.868ZM298.184 13.214C298.184 14.3873 298.463 15.3113 299.02 15.986C299.578 16.646 300.348 16.976 301.33 16.976C301.756 16.976 302.115 16.9613 302.408 16.932C302.716 16.888 302.966 16.844 303.156 16.8V10.2C302.922 10.0387 302.606 9.892 302.21 9.76C301.829 9.61333 301.418 9.54 300.978 9.54C300.01 9.54 299.299 9.87 298.844 10.53C298.404 11.19 298.184 12.0847 298.184 13.214ZM305.818 18.648C305.29 18.8093 304.623 18.956 303.816 19.088C303.024 19.22 302.188 19.286 301.308 19.286C300.399 19.286 299.585 19.1467 298.866 18.868C298.148 18.5893 297.532 18.1933 297.018 17.68C296.52 17.152 296.131 16.5213 295.852 15.788C295.588 15.04 295.456 14.204 295.456 13.28C295.456 12.3707 295.566 11.5493 295.786 10.816C296.021 10.068 296.358 9.43 296.798 8.902C297.238 8.374 297.774 7.97067 298.404 7.692C299.035 7.39867 299.761 7.252 300.582 7.252C301.14 7.252 301.631 7.318 302.056 7.45C302.482 7.582 302.848 7.72867 303.156 7.89V2.368L305.818 1.928V18.648ZM1.056 35.258C1.056 34.4073 1.188 33.6153 1.452 32.882C1.716 32.134 2.09 31.4887 2.574 30.946C3.07267 30.4033 3.674 29.978 4.378 29.67C5.082 29.362 5.874 29.208 6.754 29.208C7.83933 29.208 8.866 29.406 9.834 29.802L9.262 31.98C8.954 31.848 8.602 31.738 8.206 31.65C7.82467 31.562 7.414 31.518 6.974 31.518C5.93267 31.518 5.14067 31.848 4.598 32.508C4.05533 33.1533 3.784 34.07 3.784 35.258C3.784 36.402 4.04067 37.3113 4.554 37.986C5.06733 38.646 5.93267 38.976 7.15 38.976C7.60467 38.976 8.052 38.932 8.492 38.844C8.932 38.756 9.31333 38.646 9.636 38.514L10.01 40.714C9.71667 40.8607 9.26933 40.9927 8.668 41.11C8.08133 41.2273 7.47267 41.286 6.842 41.286C5.85933 41.286 5.00133 41.1393 4.268 40.846C3.54933 40.538 2.948 40.12 2.464 39.592C1.99467 39.0493 1.64267 38.4113 1.408 37.678C1.17333 36.93 1.056 36.1233 1.056 35.258ZM16.119 39.13C16.9403 39.13 17.5636 39.086 17.989 38.998V36.05C17.8423 36.006 17.6296 35.962 17.351 35.918C17.0723 35.874 16.7643 35.852 16.427 35.852C16.1336 35.852 15.833 35.874 15.525 35.918C15.2316 35.962 14.9603 36.0427 14.711 36.16C14.4763 36.2773 14.2856 36.446 14.139 36.666C13.9923 36.8713 13.919 37.1353 13.919 37.458C13.919 38.0887 14.117 38.5287 14.513 38.778C14.909 39.0127 15.4443 39.13 16.119 39.13ZM15.899 29.208C16.779 29.208 17.5196 29.318 18.121 29.538C18.7223 29.758 19.199 30.066 19.551 30.462C19.9176 30.858 20.1743 31.342 20.321 31.914C20.4823 32.4713 20.563 33.0873 20.563 33.762V40.736C20.1523 40.824 19.529 40.9267 18.693 41.044C17.8716 41.176 16.9403 41.242 15.899 41.242C15.2096 41.242 14.579 41.176 14.007 41.044C13.435 40.912 12.9436 40.6993 12.533 40.406C12.137 40.1127 11.8216 39.7313 11.587 39.262C11.367 38.7927 11.257 38.2133 11.257 37.524C11.257 36.864 11.3816 36.3067 11.631 35.852C11.895 35.3973 12.247 35.0307 12.687 34.752C13.127 34.4587 13.633 34.2533 14.205 34.136C14.7916 34.004 15.4003 33.938 16.031 33.938C16.3243 33.938 16.6323 33.96 16.955 34.004C17.2776 34.0333 17.6223 34.092 17.989 34.18V33.74C17.989 33.432 17.9523 33.1387 17.879 32.86C17.8056 32.5813 17.6736 32.3393 17.483 32.134C17.307 31.914 17.065 31.7453 16.757 31.628C16.4636 31.5107 16.0896 31.452 15.635 31.452C15.019 31.452 14.4543 31.496 13.941 31.584C13.4276 31.672 13.0096 31.7747 12.687 31.892L12.357 29.736C12.6943 29.6187 13.1856 29.5013 13.831 29.384C14.4763 29.2667 15.1656 29.208 15.899 29.208ZM31.4569 35.302C31.4569 34.114 31.1856 33.19 30.6429 32.53C30.1149 31.87 29.2569 31.54 28.0689 31.54C27.8196 31.54 27.5556 31.5547 27.2769 31.584C27.0129 31.5987 26.7489 31.6427 26.4849 31.716V38.294C26.7196 38.4553 27.0276 38.6093 27.4089 38.756C27.8049 38.888 28.2229 38.954 28.6629 38.954C29.6309 38.954 30.3349 38.624 30.7749 37.964C31.2296 37.304 31.4569 36.4167 31.4569 35.302ZM34.1849 35.258C34.1849 36.138 34.0676 36.9447 33.8329 37.678C33.6129 38.4113 33.2902 39.042 32.8649 39.57C32.4396 40.098 31.9042 40.5087 31.2589 40.802C30.6282 41.0953 29.9096 41.242 29.1029 41.242C28.5602 41.242 28.0616 41.176 27.6069 41.044C27.1522 40.912 26.7782 40.7653 26.4849 40.604V45.07H23.8229V29.868C24.3656 29.7213 25.0329 29.582 25.8249 29.45C26.6169 29.318 27.4529 29.252 28.3329 29.252C29.2422 29.252 30.0562 29.3913 30.7749 29.67C31.4936 29.9487 32.1022 30.352 32.6009 30.88C33.1142 31.3933 33.5029 32.024 33.7669 32.772C34.0456 33.5053 34.1849 34.334 34.1849 35.258ZM36.7964 26.458L39.4584 26.018V29.494H43.5504V31.716H39.4584V36.402C39.4584 37.326 39.605 37.986 39.8984 38.382C40.1917 38.778 40.6904 38.976 41.3944 38.976C41.8784 38.976 42.3037 38.9247 42.6704 38.822C43.0517 38.7193 43.3524 38.624 43.5724 38.536L44.0124 40.648C43.7044 40.78 43.301 40.912 42.8024 41.044C42.3037 41.1907 41.717 41.264 41.0424 41.264C40.221 41.264 39.5317 41.154 38.9744 40.934C38.4317 40.714 37.999 40.3987 37.6764 39.988C37.3537 39.5627 37.1264 39.0567 36.9944 38.47C36.8624 37.8687 36.7964 37.1867 36.7964 36.424V26.458ZM48.8077 41H46.1457V29.494H48.8077V41ZM49.0937 26.128C49.0937 26.6267 48.9324 27.0227 48.6097 27.316C48.287 27.6093 47.9057 27.756 47.4657 27.756C47.011 27.756 46.6224 27.6093 46.2997 27.316C45.977 27.0227 45.8157 26.6267 45.8157 26.128C45.8157 25.6147 45.977 25.2113 46.2997 24.918C46.6224 24.6247 47.011 24.478 47.4657 24.478C47.9057 24.478 48.287 24.6247 48.6097 24.918C48.9324 25.2113 49.0937 25.6147 49.0937 26.128ZM55.1518 41C54.4184 39.4893 53.6631 37.7587 52.8858 35.808C52.1231 33.8427 51.4264 31.738 50.7958 29.494H53.6338C53.7951 30.1393 53.9784 30.836 54.1838 31.584C54.4038 32.3173 54.6311 33.058 54.8658 33.806C55.1151 34.5393 55.3644 35.258 55.6138 35.962C55.8778 36.6513 56.1198 37.2747 56.3398 37.832C56.5598 37.2747 56.7944 36.6513 57.0438 35.962C57.2931 35.258 57.5351 34.5393 57.7698 33.806C58.0191 33.058 58.2538 32.3173 58.4738 31.584C58.6938 30.836 58.8844 30.1393 59.0458 29.494H61.7958C61.1651 31.738 60.4611 33.8427 59.6838 35.808C58.9211 37.7587 58.1731 39.4893 57.4398 41H55.1518ZM67.8318 39.13C68.6532 39.13 69.2765 39.086 69.7018 38.998V36.05C69.5552 36.006 69.3425 35.962 69.0638 35.918C68.7852 35.874 68.4772 35.852 68.1398 35.852C67.8465 35.852 67.5458 35.874 67.2378 35.918C66.9445 35.962 66.6732 36.0427 66.4238 36.16C66.1892 36.2773 65.9985 36.446 65.8518 36.666C65.7052 36.8713 65.6318 37.1353 65.6318 37.458C65.6318 38.0887 65.8298 38.5287 66.2258 38.778C66.6218 39.0127 67.1572 39.13 67.8318 39.13ZM67.6118 29.208C68.4918 29.208 69.2325 29.318 69.8338 29.538C70.4352 29.758 70.9118 30.066 71.2638 30.462C71.6305 30.858 71.8872 31.342 72.0338 31.914C72.1952 32.4713 72.2758 33.0873 72.2758 33.762V40.736C71.8652 40.824 71.2418 40.9267 70.4058 41.044C69.5845 41.176 68.6532 41.242 67.6118 41.242C66.9225 41.242 66.2918 41.176 65.7198 41.044C65.1478 40.912 64.6565 40.6993 64.2458 40.406C63.8498 40.1127 63.5345 39.7313 63.2998 39.262C63.0798 38.7927 62.9698 38.2133 62.9698 37.524C62.9698 36.864 63.0945 36.3067 63.3438 35.852C63.6078 35.3973 63.9598 35.0307 64.3998 34.752C64.8398 34.4587 65.3458 34.2533 65.9178 34.136C66.5045 34.004 67.1132 33.938 67.7438 33.938C68.0372 33.938 68.3452 33.96 68.6678 34.004C68.9905 34.0333 69.3352 34.092 69.7018 34.18V33.74C69.7018 33.432 69.6652 33.1387 69.5918 32.86C69.5185 32.5813 69.3865 32.3393 69.1958 32.134C69.0198 31.914 68.7778 31.7453 68.4698 31.628C68.1765 31.5107 67.8025 31.452 67.3478 31.452C66.7318 31.452 66.1672 31.496 65.6538 31.584C65.1405 31.672 64.7225 31.7747 64.3998 31.892L64.0698 29.736C64.4072 29.6187 64.8985 29.5013 65.5438 29.384C66.1892 29.2667 66.8785 29.208 67.6118 29.208ZM75.4038 26.458L78.0658 26.018V29.494H82.1578V31.716H78.0658V36.402C78.0658 37.326 78.2125 37.986 78.5058 38.382C78.7991 38.778 79.2978 38.976 80.0018 38.976C80.4858 38.976 80.9111 38.9247 81.2778 38.822C81.6591 38.7193 81.9598 38.624 82.1798 38.536L82.6198 40.648C82.3118 40.78 81.9085 40.912 81.4098 41.044C80.9111 41.1907 80.3245 41.264 79.6498 41.264C78.8285 41.264 78.1391 41.154 77.5818 40.934C77.0391 40.714 76.6065 40.3987 76.2838 39.988C75.9611 39.5627 75.7338 39.0567 75.6018 38.47C75.4698 37.8687 75.4038 37.1867 75.4038 36.424V26.458ZM83.8998 35.302C83.8998 34.29 84.0464 33.4027 84.3398 32.64C84.6478 31.8773 85.0511 31.2467 85.5498 30.748C86.0484 30.2347 86.6204 29.8533 87.2658 29.604C87.9111 29.34 88.5711 29.208 89.2458 29.208C90.8298 29.208 92.0618 29.6993 92.9418 30.682C93.8364 31.6647 94.2838 33.1313 94.2838 35.082C94.2838 35.2287 94.2764 35.3973 94.2618 35.588C94.2618 35.764 94.2544 35.9253 94.2398 36.072H86.6498C86.7231 36.996 87.0458 37.7147 87.6178 38.228C88.2044 38.7267 89.0478 38.976 90.1478 38.976C90.7931 38.976 91.3798 38.9173 91.9078 38.8C92.4504 38.6827 92.8758 38.558 93.1838 38.426L93.5358 40.604C93.3891 40.6773 93.1838 40.758 92.9198 40.846C92.6704 40.9193 92.3771 40.9853 92.0398 41.044C91.7171 41.1173 91.3651 41.176 90.9838 41.22C90.6024 41.264 90.2138 41.286 89.8178 41.286C88.8058 41.286 87.9258 41.1393 87.1778 40.846C86.4298 40.538 85.8138 40.12 85.3298 39.592C84.8458 39.0493 84.4864 38.4187 84.2518 37.7C84.0171 36.9667 83.8998 36.1673 83.8998 35.302ZM91.6218 34.114C91.6218 33.7473 91.5704 33.4027 91.4678 33.08C91.3651 32.7427 91.2111 32.4567 91.0058 32.222C90.8151 31.9727 90.5731 31.782 90.2798 31.65C90.0011 31.5033 89.6638 31.43 89.2678 31.43C88.8571 31.43 88.4978 31.5107 88.1898 31.672C87.8818 31.8187 87.6178 32.0167 87.3978 32.266C87.1924 32.5153 87.0311 32.8013 86.9138 33.124C86.7964 33.4467 86.7158 33.7767 86.6718 34.114H91.6218ZM101.603 35.302C101.603 34.29 101.75 33.4027 102.043 32.64C102.351 31.8773 102.754 31.2467 103.253 30.748C103.752 30.2347 104.324 29.8533 104.969 29.604C105.614 29.34 106.274 29.208 106.949 29.208C108.533 29.208 109.765 29.6993 110.645 30.682C111.54 31.6647 111.987 33.1313 111.987 35.082C111.987 35.2287 111.98 35.3973 111.965 35.588C111.965 35.764 111.958 35.9253 111.943 36.072H104.353C104.426 36.996 104.749 37.7147 105.321 38.228C105.908 38.7267 106.751 38.976 107.851 38.976C108.496 38.976 109.083 38.9173 109.611 38.8C110.154 38.6827 110.579 38.558 110.887 38.426L111.239 40.604C111.092 40.6773 110.887 40.758 110.623 40.846C110.374 40.9193 110.08 40.9853 109.743 41.044C109.42 41.1173 109.068 41.176 108.687 41.22C108.306 41.264 107.917 41.286 107.521 41.286C106.509 41.286 105.629 41.1393 104.881 40.846C104.133 40.538 103.517 40.12 103.033 39.592C102.549 39.0493 102.19 38.4187 101.955 37.7C101.72 36.9667 101.603 36.1673 101.603 35.302ZM109.325 34.114C109.325 33.7473 109.274 33.4027 109.171 33.08C109.068 32.7427 108.914 32.4567 108.709 32.222C108.518 31.9727 108.276 31.782 107.983 31.65C107.704 31.5033 107.367 31.43 106.971 31.43C106.56 31.43 106.201 31.5107 105.893 31.672C105.585 31.8187 105.321 32.0167 105.101 32.266C104.896 32.5153 104.734 32.8013 104.617 33.124C104.5 33.4467 104.419 33.7767 104.375 34.114H109.325ZM117.757 41C117.024 39.4893 116.269 37.7587 115.491 35.808C114.729 33.8427 114.032 31.738 113.401 29.494H116.239C116.401 30.1393 116.584 30.836 116.789 31.584C117.009 32.3173 117.237 33.058 117.471 33.806C117.721 34.5393 117.97 35.258 118.219 35.962C118.483 36.6513 118.725 37.2747 118.945 37.832C119.165 37.2747 119.4 36.6513 119.649 35.962C119.899 35.258 120.141 34.5393 120.375 33.806C120.625 33.058 120.859 32.3173 121.079 31.584C121.299 30.836 121.49 30.1393 121.651 29.494H124.401C123.771 31.738 123.067 33.8427 122.289 35.808C121.527 37.7587 120.779 39.4893 120.045 41H117.757ZM125.494 35.302C125.494 34.29 125.64 33.4027 125.934 32.64C126.242 31.8773 126.645 31.2467 127.144 30.748C127.642 30.2347 128.214 29.8533 128.86 29.604C129.505 29.34 130.165 29.208 130.84 29.208C132.424 29.208 133.656 29.6993 134.536 30.682C135.43 31.6647 135.878 33.1313 135.878 35.082C135.878 35.2287 135.87 35.3973 135.856 35.588C135.856 35.764 135.848 35.9253 135.834 36.072H128.244C128.317 36.996 128.64 37.7147 129.212 38.228C129.798 38.7267 130.642 38.976 131.742 38.976C132.387 38.976 132.974 38.9173 133.502 38.8C134.044 38.6827 134.47 38.558 134.778 38.426L135.13 40.604C134.983 40.6773 134.778 40.758 134.514 40.846C134.264 40.9193 133.971 40.9853 133.634 41.044C133.311 41.1173 132.959 41.176 132.578 41.22C132.196 41.264 131.808 41.286 131.412 41.286C130.4 41.286 129.52 41.1393 128.772 40.846C128.024 40.538 127.408 40.12 126.924 39.592C126.44 39.0493 126.08 38.4187 125.846 37.7C125.611 36.9667 125.494 36.1673 125.494 35.302ZM133.216 34.114C133.216 33.7473 133.164 33.4027 133.062 33.08C132.959 32.7427 132.805 32.4567 132.6 32.222C132.409 31.9727 132.167 31.782 131.874 31.65C131.595 31.5033 131.258 31.43 130.862 31.43C130.451 31.43 130.092 31.5107 129.784 31.672C129.476 31.8187 129.212 32.0167 128.992 32.266C128.786 32.5153 128.625 32.8013 128.508 33.124C128.39 33.4467 128.31 33.7767 128.266 34.114H133.216ZM145.256 31.892C145.036 31.8187 144.728 31.7453 144.332 31.672C143.951 31.584 143.503 31.54 142.99 31.54C142.697 31.54 142.381 31.5693 142.044 31.628C141.721 31.6867 141.494 31.738 141.362 31.782V41H138.7V30.044C139.213 29.8533 139.851 29.6773 140.614 29.516C141.391 29.34 142.249 29.252 143.188 29.252C143.364 29.252 143.569 29.2667 143.804 29.296C144.039 29.3107 144.273 29.34 144.508 29.384C144.743 29.4133 144.97 29.4573 145.19 29.516C145.41 29.56 145.586 29.604 145.718 29.648L145.256 31.892ZM157.354 29.494C156.166 33.8647 154.787 37.8247 153.218 41.374C152.924 42.034 152.624 42.5987 152.316 43.068C152.008 43.5373 151.663 43.926 151.282 44.234C150.9 44.542 150.475 44.762 150.006 44.894C149.536 45.0407 148.994 45.114 148.378 45.114C147.967 45.114 147.556 45.07 147.146 44.982C146.75 44.894 146.449 44.7987 146.244 44.696L146.728 42.562C147.256 42.7673 147.776 42.87 148.29 42.87C148.979 42.87 149.514 42.7013 149.896 42.364C150.292 42.0413 150.636 41.5353 150.93 40.846C150.094 39.2327 149.287 37.4727 148.51 35.566C147.747 33.6593 147.065 31.6353 146.464 29.494H149.302C149.448 30.11 149.624 30.7773 149.83 31.496C150.05 32.2147 150.284 32.948 150.534 33.696C150.783 34.4293 151.047 35.1627 151.326 35.896C151.604 36.6293 151.883 37.3113 152.162 37.942C152.631 36.6367 153.071 35.2507 153.482 33.784C153.892 32.3027 154.266 30.8727 154.604 29.494H157.354ZM167.385 39.086C168.089 39.086 168.602 39.0053 168.925 38.844C169.247 38.668 169.409 38.3747 169.409 37.964C169.409 37.5827 169.233 37.2673 168.881 37.018C168.543 36.7687 167.979 36.4973 167.187 36.204C166.703 36.028 166.255 35.8447 165.845 35.654C165.449 35.4487 165.104 35.214 164.811 34.95C164.517 34.686 164.283 34.3707 164.107 34.004C163.945 33.6227 163.865 33.1607 163.865 32.618C163.865 31.562 164.253 30.7333 165.031 30.132C165.808 29.516 166.864 29.208 168.199 29.208C168.873 29.208 169.519 29.274 170.135 29.406C170.751 29.5233 171.213 29.6407 171.521 29.758L171.037 31.914C170.743 31.782 170.369 31.6647 169.915 31.562C169.46 31.4447 168.932 31.386 168.331 31.386C167.788 31.386 167.348 31.4813 167.011 31.672C166.673 31.848 166.505 32.1267 166.505 32.508C166.505 32.6987 166.534 32.8673 166.593 33.014C166.666 33.1607 166.783 33.3 166.945 33.432C167.106 33.5493 167.319 33.674 167.583 33.806C167.847 33.9233 168.169 34.048 168.551 34.18C169.181 34.4147 169.717 34.6493 170.157 34.884C170.597 35.104 170.956 35.3607 171.235 35.654C171.528 35.9327 171.741 36.2553 171.873 36.622C172.005 36.9887 172.071 37.4287 172.071 37.942C172.071 39.042 171.66 39.878 170.839 40.45C170.032 41.0073 168.873 41.286 167.363 41.286C166.351 41.286 165.537 41.198 164.921 41.022C164.305 40.8607 163.872 40.7287 163.623 40.626L164.085 38.404C164.481 38.5653 164.95 38.7193 165.493 38.866C166.05 39.0127 166.681 39.086 167.385 39.086ZM174.425 26.458L177.087 26.018V29.494H181.179V31.716H177.087V36.402C177.087 37.326 177.234 37.986 177.527 38.382C177.821 38.778 178.319 38.976 179.023 38.976C179.507 38.976 179.933 38.9247 180.299 38.822C180.681 38.7193 180.981 38.624 181.201 38.536L181.641 40.648C181.333 40.78 180.93 40.912 180.431 41.044C179.933 41.1907 179.346 41.264 178.671 41.264C177.85 41.264 177.161 41.154 176.603 40.934C176.061 40.714 175.628 40.3987 175.305 39.988C174.983 39.5627 174.755 39.0567 174.623 38.47C174.491 37.8687 174.425 37.1867 174.425 36.424V26.458ZM193.191 40.648C192.677 40.78 192.01 40.912 191.189 41.044C190.367 41.1907 189.465 41.264 188.483 41.264C187.559 41.264 186.781 41.132 186.151 40.868C185.535 40.604 185.036 40.2373 184.655 39.768C184.288 39.2987 184.024 38.7413 183.863 38.096C183.701 37.436 183.621 36.7173 183.621 35.94V29.494H186.283V35.522C186.283 36.754 186.459 37.634 186.811 38.162C187.177 38.69 187.808 38.954 188.703 38.954C189.025 38.954 189.363 38.9393 189.715 38.91C190.081 38.8807 190.353 38.844 190.529 38.8V29.494H193.191V40.648ZM198.669 35.214C198.669 36.3873 198.947 37.3113 199.505 37.986C200.062 38.646 200.832 38.976 201.815 38.976C202.24 38.976 202.599 38.9613 202.893 38.932C203.201 38.888 203.45 38.844 203.641 38.8V32.2C203.406 32.0387 203.091 31.892 202.695 31.76C202.313 31.6133 201.903 31.54 201.463 31.54C200.495 31.54 199.783 31.87 199.329 32.53C198.889 33.19 198.669 34.0847 198.669 35.214ZM206.303 40.648C205.775 40.8093 205.107 40.956 204.301 41.088C203.509 41.22 202.673 41.286 201.793 41.286C200.883 41.286 200.069 41.1467 199.351 40.868C198.632 40.5893 198.016 40.1933 197.503 39.68C197.004 39.152 196.615 38.5213 196.337 37.788C196.073 37.04 195.941 36.204 195.941 35.28C195.941 34.3707 196.051 33.5493 196.271 32.816C196.505 32.068 196.843 31.43 197.283 30.902C197.723 30.374 198.258 29.9707 198.889 29.692C199.519 29.3987 200.245 29.252 201.067 29.252C201.624 29.252 202.115 29.318 202.541 29.45C202.966 29.582 203.333 29.7287 203.641 29.89V24.368L206.303 23.928V40.648ZM209.046 35.302C209.046 34.29 209.193 33.4027 209.486 32.64C209.794 31.8773 210.198 31.2467 210.696 30.748C211.195 30.2347 211.767 29.8533 212.412 29.604C213.058 29.34 213.718 29.208 214.392 29.208C215.976 29.208 217.208 29.6993 218.088 30.682C218.983 31.6647 219.43 33.1313 219.43 35.082C219.43 35.2287 219.423 35.3973 219.408 35.588C219.408 35.764 219.401 35.9253 219.386 36.072H211.796C211.87 36.996 212.192 37.7147 212.764 38.228C213.351 38.7267 214.194 38.976 215.294 38.976C215.94 38.976 216.526 38.9173 217.054 38.8C217.597 38.6827 218.022 38.558 218.33 38.426L218.682 40.604C218.536 40.6773 218.33 40.758 218.066 40.846C217.817 40.9193 217.524 40.9853 217.186 41.044C216.864 41.1173 216.512 41.176 216.13 41.22C215.749 41.264 215.36 41.286 214.964 41.286C213.952 41.286 213.072 41.1393 212.324 40.846C211.576 40.538 210.96 40.12 210.476 39.592C209.992 39.0493 209.633 38.4187 209.398 37.7C209.164 36.9667 209.046 36.1673 209.046 35.302ZM216.768 34.114C216.768 33.7473 216.717 33.4027 216.614 33.08C216.512 32.7427 216.358 32.4567 216.152 32.222C215.962 31.9727 215.72 31.782 215.426 31.65C215.148 31.5033 214.81 31.43 214.414 31.43C214.004 31.43 213.644 31.5107 213.336 31.672C213.028 31.8187 212.764 32.0167 212.544 32.266C212.339 32.5153 212.178 32.8013 212.06 33.124C211.943 33.4467 211.862 33.7767 211.818 34.114H216.768ZM222.253 29.868C222.766 29.7213 223.433 29.582 224.255 29.45C225.076 29.318 225.985 29.252 226.983 29.252C227.921 29.252 228.706 29.384 229.337 29.648C229.967 29.8973 230.466 30.2567 230.833 30.726C231.214 31.1807 231.478 31.738 231.625 32.398C231.786 33.0433 231.867 33.7547 231.867 34.532V41H229.205V34.95C229.205 34.334 229.161 33.8133 229.073 33.388C228.999 32.948 228.867 32.596 228.677 32.332C228.501 32.0533 228.251 31.8553 227.929 31.738C227.621 31.606 227.239 31.54 226.785 31.54C226.447 31.54 226.095 31.562 225.729 31.606C225.362 31.65 225.091 31.6867 224.915 31.716V41H222.253V29.868ZM234.99 26.458L237.652 26.018V29.494H241.744V31.716H237.652V36.402C237.652 37.326 237.798 37.986 238.092 38.382C238.385 38.778 238.884 38.976 239.588 38.976C240.072 38.976 240.497 38.9247 240.864 38.822C241.245 38.7193 241.546 38.624 241.766 38.536L242.206 40.648C241.898 40.78 241.494 40.912 240.996 41.044C240.497 41.1907 239.91 41.264 239.236 41.264C238.414 41.264 237.725 41.154 237.168 40.934C236.625 40.714 236.192 40.3987 235.87 39.988C235.547 39.5627 235.32 39.0567 235.188 38.47C235.056 37.8687 234.99 37.1867 234.99 36.424V26.458ZM256.316 33.762C255.978 35.0527 255.612 36.314 255.216 37.546C254.834 38.7633 254.453 39.9147 254.072 41H251.894C251.6 40.3253 251.292 39.5553 250.97 38.69C250.647 37.8247 250.324 36.9007 250.002 35.918C249.679 34.9353 249.356 33.9013 249.034 32.816C248.711 31.7307 248.396 30.6233 248.088 29.494H250.904C251.036 30.11 251.19 30.7773 251.366 31.496C251.542 32.2 251.725 32.926 251.916 33.674C252.106 34.4073 252.304 35.126 252.51 35.83C252.715 36.534 252.92 37.1793 253.126 37.766C253.346 37.0913 253.558 36.3947 253.764 35.676C253.984 34.9573 254.189 34.2387 254.38 33.52C254.57 32.8013 254.746 32.1047 254.908 31.43C255.084 30.7407 255.238 30.0953 255.37 29.494H257.416C257.548 30.0953 257.694 30.7407 257.856 31.43C258.017 32.1047 258.186 32.8013 258.362 33.52C258.552 34.2387 258.75 34.9573 258.956 35.676C259.176 36.3947 259.396 37.0913 259.616 37.766C259.806 37.1793 260.004 36.534 260.21 35.83C260.415 35.126 260.613 34.4073 260.804 33.674C261.009 32.926 261.2 32.2 261.376 31.496C261.552 30.7773 261.706 30.11 261.838 29.494H264.588C264.28 30.6233 263.964 31.7307 263.642 32.816C263.319 33.9013 262.996 34.9353 262.674 35.918C262.351 36.9007 262.028 37.8247 261.706 38.69C261.383 39.5553 261.068 40.3253 260.76 41H258.604C258.222 39.9147 257.826 38.7633 257.416 37.546C257.02 36.314 256.653 35.0527 256.316 33.762ZM269.302 41H266.64V29.494H269.302V41ZM269.588 26.128C269.588 26.6267 269.426 27.0227 269.104 27.316C268.781 27.6093 268.4 27.756 267.96 27.756C267.505 27.756 267.116 27.6093 266.794 27.316C266.471 27.0227 266.31 26.6267 266.31 26.128C266.31 25.6147 266.471 25.2113 266.794 24.918C267.116 24.6247 267.505 24.478 267.96 24.478C268.4 24.478 268.781 24.6247 269.104 24.918C269.426 25.2113 269.588 25.6147 269.588 26.128ZM272.566 26.458L275.228 26.018V29.494H279.32V31.716H275.228V36.402C275.228 37.326 275.375 37.986 275.668 38.382C275.961 38.778 276.46 38.976 277.164 38.976C277.648 38.976 278.073 38.9247 278.44 38.822C278.821 38.7193 279.122 38.624 279.342 38.536L279.782 40.648C279.474 40.78 279.071 40.912 278.572 41.044C278.073 41.1907 277.487 41.264 276.812 41.264C275.991 41.264 275.301 41.154 274.744 40.934C274.201 40.714 273.769 40.3987 273.446 39.988C273.123 39.5627 272.896 39.0567 272.764 38.47C272.632 37.8687 272.566 37.1867 272.566 36.424V26.458ZM281.893 41V24.368L284.555 23.928V29.626C284.849 29.5233 285.186 29.4353 285.567 29.362C285.963 29.2887 286.352 29.252 286.733 29.252C287.657 29.252 288.42 29.384 289.021 29.648C289.637 29.8973 290.129 30.2567 290.495 30.726C290.862 31.1807 291.119 31.7307 291.265 32.376C291.427 33.0213 291.507 33.74 291.507 34.532V41H288.845V34.95C288.845 34.334 288.801 33.8133 288.713 33.388C288.64 32.948 288.508 32.596 288.317 32.332C288.141 32.0533 287.899 31.8553 287.591 31.738C287.283 31.606 286.902 31.54 286.447 31.54C286.095 31.54 285.736 31.5767 285.369 31.65C285.003 31.7233 284.731 31.7893 284.555 31.848V41H281.893ZM299.701 26.458L302.363 26.018V29.494H306.455V31.716H302.363V36.402C302.363 37.326 302.509 37.986 302.803 38.382C303.096 38.778 303.595 38.976 304.299 38.976C304.783 38.976 305.208 38.9247 305.575 38.822C305.956 38.7193 306.257 38.624 306.477 38.536L306.917 40.648C306.609 40.78 306.205 40.912 305.707 41.044C305.208 41.1907 304.621 41.264 303.947 41.264C303.125 41.264 302.436 41.154 301.879 40.934C301.336 40.714 300.903 40.3987 300.581 39.988C300.258 39.5627 300.031 39.0567 299.899 38.47C299.767 37.8687 299.701 37.1867 299.701 36.424V26.458ZM309.028 41V24.368L311.69 23.928V29.626C311.983 29.5233 312.321 29.4353 312.702 29.362C313.098 29.2887 313.487 29.252 313.868 29.252C314.792 29.252 315.555 29.384 316.156 29.648C316.772 29.8973 317.263 30.2567 317.63 30.726C317.997 31.1807 318.253 31.7307 318.4 32.376C318.561 33.0213 318.642 33.74 318.642 34.532V41H315.98V34.95C315.98 34.334 315.936 33.8133 315.848 33.388C315.775 32.948 315.643 32.596 315.452 32.332C315.276 32.0533 315.034 31.8553 314.726 31.738C314.418 31.606 314.037 31.54 313.582 31.54C313.23 31.54 312.871 31.5767 312.504 31.65C312.137 31.7233 311.866 31.7893 311.69 31.848V41H309.028ZM321.195 35.302C321.195 34.29 321.341 33.4027 321.635 32.64C321.943 31.8773 322.346 31.2467 322.845 30.748C323.343 30.2347 323.915 29.8533 324.561 29.604C325.206 29.34 325.866 29.208 326.541 29.208C328.125 29.208 329.357 29.6993 330.237 30.682C331.131 31.6647 331.579 33.1313 331.579 35.082C331.579 35.2287 331.571 35.3973 331.557 35.588C331.557 35.764 331.549 35.9253 331.535 36.072H323.945C324.018 36.996 324.341 37.7147 324.913 38.228C325.499 38.7267 326.343 38.976 327.443 38.976C328.088 38.976 328.675 38.9173 329.203 38.8C329.745 38.6827 330.171 38.558 330.479 38.426L330.831 40.604C330.684 40.6773 330.479 40.758 330.215 40.846C329.965 40.9193 329.672 40.9853 329.335 41.044C329.012 41.1173 328.66 41.176 328.279 41.22C327.897 41.264 327.509 41.286 327.113 41.286C326.101 41.286 325.221 41.1393 324.473 40.846C323.725 40.538 323.109 40.12 322.625 39.592C322.141 39.0493 321.781 38.4187 321.547 37.7C321.312 36.9667 321.195 36.1673 321.195 35.302ZM328.917 34.114C328.917 33.7473 328.865 33.4027 328.763 33.08C328.66 32.7427 328.506 32.4567 328.301 32.222C328.11 31.9727 327.868 31.782 327.575 31.65C327.296 31.5033 326.959 31.43 326.563 31.43C326.152 31.43 325.793 31.5107 325.485 31.672C325.177 31.8187 324.913 32.0167 324.693 32.266C324.487 32.5153 324.326 32.8013 324.209 33.124C324.091 33.4467 324.011 33.7767 323.967 34.114H328.917ZM8.25 53.892C8.03 53.8187 7.722 53.7453 7.326 53.672C6.94467 53.584 6.49733 53.54 5.984 53.54C5.69067 53.54 5.37533 53.5693 5.038 53.628C4.71533 53.6867 4.488 53.738 4.356 53.782V63H1.694V52.044C2.20733 51.8533 2.84533 51.6773 3.608 51.516C4.38533 51.34 5.24333 51.252 6.182 51.252C6.358 51.252 6.56333 51.2667 6.798 51.296C7.03267 51.3107 7.26733 51.34 7.502 51.384C7.73667 51.4133 7.964 51.4573 8.184 51.516C8.404 51.56 8.58 51.604 8.712 51.648L8.25 53.892ZM13.251 63H10.589V51.494H13.251V63ZM13.537 48.128C13.537 48.6267 13.3757 49.0227 13.053 49.316C12.7304 49.6093 12.349 49.756 11.909 49.756C11.4544 49.756 11.0657 49.6093 10.743 49.316C10.4204 49.0227 10.259 48.6267 10.259 48.128C10.259 47.6147 10.4204 47.2113 10.743 46.918C11.0657 46.6247 11.4544 46.478 11.909 46.478C12.349 46.478 12.7304 46.6247 13.053 46.918C13.3757 47.2113 13.537 47.6147 13.537 48.128ZM18.7371 56.95C18.7371 58.0793 18.9791 58.908 19.4631 59.436C19.9618 59.9493 20.5998 60.206 21.3771 60.206C21.8025 60.206 22.1985 60.1473 22.5651 60.03C22.9465 59.9127 23.2545 59.7733 23.4891 59.612V53.65C23.2985 53.606 23.0638 53.5693 22.7851 53.54C22.5065 53.496 22.1545 53.474 21.7291 53.474C20.7611 53.474 20.0205 53.7967 19.5071 54.442C18.9938 55.0727 18.7371 55.9087 18.7371 56.95ZM26.1511 61.834C26.1511 63.6673 25.6818 65.0093 24.7431 65.86C23.8191 66.7107 22.3965 67.136 20.4751 67.136C19.7711 67.136 19.0818 67.0773 18.4071 66.96C17.7471 66.8427 17.1458 66.6887 16.6031 66.498L17.0871 64.232C17.5418 64.4227 18.0551 64.5767 18.6271 64.694C19.2138 64.8113 19.8445 64.87 20.5191 64.87C21.5898 64.87 22.3525 64.65 22.8071 64.21C23.2618 63.77 23.4891 63.1173 23.4891 62.252V61.812C23.2251 61.944 22.8731 62.076 22.4331 62.208C22.0078 62.34 21.5165 62.406 20.9591 62.406C20.2258 62.406 19.5511 62.2887 18.9351 62.054C18.3338 61.8193 17.8131 61.4747 17.3731 61.02C16.9478 60.5653 16.6105 60.0007 16.3611 59.326C16.1265 58.6367 16.0091 57.8447 16.0091 56.95C16.0091 56.114 16.1338 55.344 16.3831 54.64C16.6471 53.936 17.0211 53.3347 17.5051 52.836C18.0038 52.3373 18.6051 51.9487 19.3091 51.67C20.0131 51.3913 20.8125 51.252 21.7071 51.252C22.5725 51.252 23.3938 51.318 24.1711 51.45C24.9485 51.582 25.6085 51.7213 26.1511 51.868V61.834ZM29.5378 63V46.368L32.1998 45.928V51.626C32.4931 51.5233 32.8304 51.4353 33.2118 51.362C33.6078 51.2887 33.9964 51.252 34.3778 51.252C35.3018 51.252 36.0644 51.384 36.6658 51.648C37.2818 51.8973 37.7731 52.2567 38.1398 52.726C38.5064 53.1807 38.7631 53.7307 38.9098 54.376C39.0711 55.0213 39.1517 55.74 39.1517 56.532V63H36.4898V56.95C36.4898 56.334 36.4458 55.8133 36.3578 55.388C36.2844 54.948 36.1524 54.596 35.9618 54.332C35.7858 54.0533 35.5438 53.8553 35.2358 53.738C34.9278 53.606 34.5464 53.54 34.0918 53.54C33.7398 53.54 33.3804 53.5767 33.0138 53.65C32.6471 53.7233 32.3758 53.7893 32.1998 53.848V63H29.5378ZM42.2104 48.458L44.8724 48.018V51.494H48.9644V53.716H44.8724V58.402C44.8724 59.326 45.0191 59.986 45.3124 60.382C45.6058 60.778 46.1044 60.976 46.8084 60.976C47.2924 60.976 47.7178 60.9247 48.0844 60.822C48.4658 60.7193 48.7664 60.624 48.9864 60.536L49.4264 62.648C49.1184 62.78 48.7151 62.912 48.2164 63.044C47.7178 63.1907 47.1311 63.264 46.4564 63.264C45.6351 63.264 44.9458 63.154 44.3884 62.934C43.8458 62.714 43.4131 62.3987 43.0904 61.988C42.7678 61.5627 42.5404 61.0567 42.4084 60.47C42.2764 59.8687 42.2104 59.1867 42.2104 58.424V48.458ZM56.5405 48.458L59.2025 48.018V51.494H63.2945V53.716H59.2025V58.402C59.2025 59.326 59.3492 59.986 59.6425 60.382C59.9358 60.778 60.4345 60.976 61.1385 60.976C61.6225 60.976 62.0478 60.9247 62.4145 60.822C62.7958 60.7193 63.0965 60.624 63.3165 60.536L63.7565 62.648C63.4485 62.78 63.0452 62.912 62.5465 63.044C62.0478 63.1907 61.4612 63.264 60.7865 63.264C59.9652 63.264 59.2758 63.154 58.7185 62.934C58.1758 62.714 57.7432 62.3987 57.4205 61.988C57.0978 61.5627 56.8705 61.0567 56.7385 60.47C56.6065 59.8687 56.5405 59.1867 56.5405 58.424V48.458ZM76.016 57.236C76.016 58.1453 75.884 58.974 75.62 59.722C75.356 60.47 74.982 61.108 74.498 61.636C74.014 62.164 73.4273 62.5747 72.738 62.868C72.0633 63.1613 71.3153 63.308 70.494 63.308C69.6727 63.308 68.9247 63.1613 68.25 62.868C67.5753 62.5747 66.996 62.164 66.512 61.636C66.028 61.108 65.6467 60.47 65.368 59.722C65.104 58.974 64.972 58.1453 64.972 57.236C64.972 56.3267 65.104 55.5053 65.368 54.772C65.6467 54.024 66.028 53.386 66.512 52.858C67.0107 52.33 67.5973 51.9267 68.272 51.648C68.9467 51.3547 69.6873 51.208 70.494 51.208C71.3007 51.208 72.0413 51.3547 72.716 51.648C73.4053 51.9267 73.992 52.33 74.476 52.858C74.96 53.386 75.334 54.024 75.598 54.772C75.8767 55.5053 76.016 56.3267 76.016 57.236ZM73.288 57.236C73.288 56.092 73.0387 55.19 72.54 54.53C72.056 53.8553 71.374 53.518 70.494 53.518C69.614 53.518 68.9247 53.8553 68.426 54.53C67.942 55.19 67.7 56.092 67.7 57.236C67.7 58.3947 67.942 59.3113 68.426 59.986C68.9247 60.6607 69.614 60.998 70.494 60.998C71.374 60.998 72.056 60.6607 72.54 59.986C73.0387 59.3113 73.288 58.3947 73.288 57.236ZM89.1645 57.236C89.1645 58.1453 89.0325 58.974 88.7685 59.722C88.5045 60.47 88.1305 61.108 87.6465 61.636C87.1625 62.164 86.5758 62.5747 85.8865 62.868C85.2118 63.1613 84.4638 63.308 83.6425 63.308C82.8211 63.308 82.0731 63.1613 81.3985 62.868C80.7238 62.5747 80.1445 62.164 79.6605 61.636C79.1765 61.108 78.7951 60.47 78.5165 59.722C78.2525 58.974 78.1205 58.1453 78.1205 57.236C78.1205 56.3267 78.2525 55.5053 78.5165 54.772C78.7951 54.024 79.1765 53.386 79.6605 52.858C80.1591 52.33 80.7458 51.9267 81.4205 51.648C82.0951 51.3547 82.8358 51.208 83.6425 51.208C84.4491 51.208 85.1898 51.3547 85.8645 51.648C86.5538 51.9267 87.1405 52.33 87.6245 52.858C88.1085 53.386 88.4825 54.024 88.7465 54.772C89.0251 55.5053 89.1645 56.3267 89.1645 57.236ZM86.4365 57.236C86.4365 56.092 86.1871 55.19 85.6885 54.53C85.2045 53.8553 84.5225 53.518 83.6425 53.518C82.7625 53.518 82.0731 53.8553 81.5745 54.53C81.0905 55.19 80.8485 56.092 80.8485 57.236C80.8485 58.3947 81.0905 59.3113 81.5745 59.986C82.0731 60.6607 82.7625 60.998 83.6425 60.998C84.5225 60.998 85.2045 60.6607 85.6885 59.986C86.1871 59.3113 86.4365 58.3947 86.4365 57.236ZM95.9109 63.22C95.1189 63.2053 94.4589 63.1173 93.9309 62.956C93.4176 62.7947 93.0069 62.5673 92.6989 62.274C92.3909 61.966 92.1709 61.592 92.0389 61.152C91.9216 60.6973 91.8629 60.184 91.8629 59.612V46.368L94.5249 45.928V59.106C94.5249 59.4287 94.5469 59.7 94.5909 59.92C94.6496 60.14 94.7449 60.3307 94.8769 60.492C95.0089 60.6387 95.1849 60.756 95.4049 60.844C95.6396 60.9173 95.9329 60.976 96.2849 61.02L95.9109 63.22ZM101.32 61.086C102.024 61.086 102.537 61.0053 102.86 60.844C103.183 60.668 103.344 60.3747 103.344 59.964C103.344 59.5827 103.168 59.2673 102.816 59.018C102.479 58.7687 101.914 58.4973 101.122 58.204C100.638 58.028 100.191 57.8447 99.7801 57.654C99.3841 57.4487 99.0395 57.214 98.7461 56.95C98.4528 56.686 98.2181 56.3707 98.0421 56.004C97.8808 55.6227 97.8001 55.1607 97.8001 54.618C97.8001 53.562 98.1888 52.7333 98.9661 52.132C99.7435 51.516 100.799 51.208 102.134 51.208C102.809 51.208 103.454 51.274 104.07 51.406C104.686 51.5233 105.148 51.6407 105.456 51.758L104.972 53.914C104.679 53.782 104.305 53.6647 103.85 53.562C103.395 53.4447 102.867 53.386 102.266 53.386C101.723 53.386 101.283 53.4813 100.946 53.672C100.609 53.848 100.44 54.1267 100.44 54.508C100.44 54.6987 100.469 54.8673 100.528 55.014C100.601 55.1607 100.719 55.3 100.88 55.432C101.041 55.5493 101.254 55.674 101.518 55.806C101.782 55.9233 102.105 56.048 102.486 56.18C103.117 56.4147 103.652 56.6493 104.092 56.884C104.532 57.104 104.891 57.3607 105.17 57.654C105.463 57.9327 105.676 58.2553 105.808 58.622C105.94 58.9887 106.006 59.4287 106.006 59.942C106.006 61.042 105.595 61.878 104.774 62.45C103.967 63.0073 102.809 63.286 101.298 63.286C100.286 63.286 99.4721 63.198 98.8561 63.022C98.2401 62.8607 97.8075 62.7287 97.5581 62.626L98.0201 60.404C98.4161 60.5653 98.8855 60.7193 99.4281 60.866C99.9855 61.0127 100.616 61.086 101.32 61.086ZM112.88 58.952C112.88 58.3947 112.96 57.8887 113.122 57.434C113.298 56.9793 113.525 56.5687 113.804 56.202C114.097 55.8353 114.427 55.5127 114.794 55.234C115.175 54.9553 115.571 54.706 115.982 54.486C115.542 54.0167 115.182 53.518 114.904 52.99C114.64 52.462 114.508 51.9047 114.508 51.318C114.508 50.086 114.882 49.1253 115.63 48.436C116.392 47.7467 117.39 47.402 118.622 47.402C119.252 47.402 119.81 47.49 120.294 47.666C120.792 47.842 121.203 48.084 121.526 48.392C121.848 48.7 122.09 49.0667 122.252 49.492C122.428 49.9027 122.516 50.3427 122.516 50.812C122.516 51.2813 122.435 51.7213 122.274 52.132C122.127 52.5427 121.922 52.924 121.658 53.276C121.394 53.6133 121.086 53.9287 120.734 54.222C120.396 54.5007 120.03 54.75 119.634 54.97L122.648 58.006C122.853 57.6247 123.022 57.1993 123.154 56.73C123.286 56.246 123.388 55.7767 123.462 55.322L125.684 55.608C125.61 56.1947 125.456 56.8473 125.222 57.566C124.987 58.27 124.679 58.9447 124.298 59.59C124.782 60.1327 125.244 60.6973 125.684 61.284C126.138 61.856 126.512 62.428 126.806 63H124.034C123.887 62.7507 123.696 62.4793 123.462 62.186C123.242 61.8927 123.007 61.6213 122.758 61.372C122.156 61.9147 121.467 62.3547 120.69 62.692C119.912 63.0293 119.032 63.198 118.05 63.198C117.067 63.198 116.246 63.066 115.586 62.802C114.926 62.538 114.39 62.2007 113.98 61.79C113.584 61.3793 113.298 60.9247 113.122 60.426C112.96 59.9273 112.88 59.436 112.88 58.952ZM115.432 58.776C115.432 59.0253 115.476 59.282 115.564 59.546C115.666 59.81 115.82 60.0593 116.026 60.294C116.246 60.514 116.524 60.6973 116.862 60.844C117.214 60.9907 117.632 61.064 118.116 61.064C118.776 61.064 119.37 60.9613 119.898 60.756C120.44 60.5507 120.902 60.2573 121.284 59.876L117.412 55.938C117.192 56.0553 116.964 56.1947 116.73 56.356C116.495 56.5173 116.282 56.7153 116.092 56.95C115.901 57.17 115.74 57.434 115.608 57.742C115.49 58.0353 115.432 58.38 115.432 58.776ZM120.206 50.922C120.206 50.4967 120.066 50.1373 119.788 49.844C119.509 49.536 119.106 49.382 118.578 49.382C118.02 49.382 117.595 49.5507 117.302 49.888C117.008 50.2253 116.862 50.6507 116.862 51.164C116.862 51.5893 116.979 52.0147 117.214 52.44C117.448 52.8507 117.771 53.2467 118.182 53.628C118.46 53.4813 118.717 53.32 118.952 53.144C119.201 52.968 119.414 52.77 119.59 52.55C119.78 52.33 119.927 52.088 120.03 51.824C120.147 51.56 120.206 51.2593 120.206 50.922ZM136.683 61.086C137.387 61.086 137.901 61.0053 138.223 60.844C138.546 60.668 138.707 60.3747 138.707 59.964C138.707 59.5827 138.531 59.2673 138.179 59.018C137.842 58.7687 137.277 58.4973 136.485 58.204C136.001 58.028 135.554 57.8447 135.143 57.654C134.747 57.4487 134.403 57.214 134.109 56.95C133.816 56.686 133.581 56.3707 133.405 56.004C133.244 55.6227 133.163 55.1607 133.163 54.618C133.163 53.562 133.552 52.7333 134.329 52.132C135.107 51.516 136.163 51.208 137.497 51.208C138.172 51.208 138.817 51.274 139.433 51.406C140.049 51.5233 140.511 51.6407 140.819 51.758L140.335 53.914C140.042 53.782 139.668 53.6647 139.213 53.562C138.759 53.4447 138.231 53.386 137.629 53.386C137.087 53.386 136.647 53.4813 136.309 53.672C135.972 53.848 135.803 54.1267 135.803 54.508C135.803 54.6987 135.833 54.8673 135.891 55.014C135.965 55.1607 136.082 55.3 136.243 55.432C136.405 55.5493 136.617 55.674 136.881 55.806C137.145 55.9233 137.468 56.048 137.849 56.18C138.48 56.4147 139.015 56.6493 139.455 56.884C139.895 57.104 140.255 57.3607 140.533 57.654C140.827 57.9327 141.039 58.2553 141.171 58.622C141.303 58.9887 141.369 59.4287 141.369 59.942C141.369 61.042 140.959 61.878 140.137 62.45C139.331 63.0073 138.172 63.286 136.661 63.286C135.649 63.286 134.835 63.198 134.219 63.022C133.603 62.8607 133.171 62.7287 132.921 62.626L133.383 60.404C133.779 60.5653 134.249 60.7193 134.791 60.866C135.349 61.0127 135.979 61.086 136.683 61.086ZM153.294 62.648C152.781 62.78 152.113 62.912 151.292 63.044C150.471 63.1907 149.569 63.264 148.586 63.264C147.662 63.264 146.885 63.132 146.254 62.868C145.638 62.604 145.139 62.2373 144.758 61.768C144.391 61.2987 144.127 60.7413 143.966 60.096C143.805 59.436 143.724 58.7173 143.724 57.94V51.494H146.386V57.522C146.386 58.754 146.562 59.634 146.914 60.162C147.281 60.69 147.911 60.954 148.806 60.954C149.129 60.954 149.466 60.9393 149.818 60.91C150.185 60.8807 150.456 60.844 150.632 60.8V51.494H153.294V62.648ZM164.316 57.302C164.316 56.114 164.045 55.19 163.502 54.53C162.974 53.87 162.116 53.54 160.928 53.54C160.679 53.54 160.415 53.5547 160.136 53.584C159.872 53.5987 159.608 53.6427 159.344 53.716V60.294C159.579 60.4553 159.887 60.6093 160.268 60.756C160.664 60.888 161.082 60.954 161.522 60.954C162.49 60.954 163.194 60.624 163.634 59.964C164.089 59.304 164.316 58.4167 164.316 57.302ZM167.044 57.258C167.044 58.138 166.927 58.9447 166.692 59.678C166.472 60.4113 166.15 61.042 165.724 61.57C165.299 62.098 164.764 62.5087 164.118 62.802C163.488 63.0953 162.769 63.242 161.962 63.242C161.42 63.242 160.921 63.176 160.466 63.044C160.012 62.912 159.638 62.7653 159.344 62.604V67.07H156.682V51.868C157.225 51.7213 157.892 51.582 158.684 51.45C159.476 51.318 160.312 51.252 161.192 51.252C162.102 51.252 162.916 51.3913 163.634 51.67C164.353 51.9487 164.962 52.352 165.46 52.88C165.974 53.3933 166.362 54.024 166.626 54.772C166.905 55.5053 167.044 56.334 167.044 57.258ZM177.422 57.302C177.422 56.114 177.15 55.19 176.608 54.53C176.08 53.87 175.222 53.54 174.034 53.54C173.784 53.54 173.52 53.5547 173.242 53.584C172.978 53.5987 172.714 53.6427 172.45 53.716V60.294C172.684 60.4553 172.992 60.6093 173.374 60.756C173.77 60.888 174.188 60.954 174.628 60.954C175.596 60.954 176.3 60.624 176.74 59.964C177.194 59.304 177.422 58.4167 177.422 57.302ZM180.15 57.258C180.15 58.138 180.032 58.9447 179.798 59.678C179.578 60.4113 179.255 61.042 178.83 61.57C178.404 62.098 177.869 62.5087 177.224 62.802C176.593 63.0953 175.874 63.242 175.068 63.242C174.525 63.242 174.026 63.176 173.572 63.044C173.117 62.912 172.743 62.7653 172.45 62.604V67.07H169.788V51.868C170.33 51.7213 170.998 51.582 171.79 51.45C172.582 51.318 173.418 51.252 174.298 51.252C175.207 51.252 176.021 51.3913 176.74 51.67C177.458 51.9487 178.067 52.352 178.566 52.88C179.079 53.3933 179.468 54.024 179.732 54.772C180.01 55.5053 180.15 56.334 180.15 57.258ZM193.299 57.236C193.299 58.1453 193.167 58.974 192.903 59.722C192.639 60.47 192.265 61.108 191.781 61.636C191.297 62.164 190.711 62.5747 190.021 62.868C189.347 63.1613 188.599 63.308 187.777 63.308C186.956 63.308 186.208 63.1613 185.533 62.868C184.859 62.5747 184.279 62.164 183.795 61.636C183.311 61.108 182.93 60.47 182.651 59.722C182.387 58.974 182.255 58.1453 182.255 57.236C182.255 56.3267 182.387 55.5053 182.651 54.772C182.93 54.024 183.311 53.386 183.795 52.858C184.294 52.33 184.881 51.9267 185.555 51.648C186.23 51.3547 186.971 51.208 187.777 51.208C188.584 51.208 189.325 51.3547 189.999 51.648C190.689 51.9267 191.275 52.33 191.759 52.858C192.243 53.386 192.617 54.024 192.881 54.772C193.16 55.5053 193.299 56.3267 193.299 57.236ZM190.571 57.236C190.571 56.092 190.322 55.19 189.823 54.53C189.339 53.8553 188.657 53.518 187.777 53.518C186.897 53.518 186.208 53.8553 185.709 54.53C185.225 55.19 184.983 56.092 184.983 57.236C184.983 58.3947 185.225 59.3113 185.709 59.986C186.208 60.6607 186.897 60.998 187.777 60.998C188.657 60.998 189.339 60.6607 189.823 59.986C190.322 59.3113 190.571 58.3947 190.571 57.236ZM202.598 53.892C202.378 53.8187 202.07 53.7453 201.674 53.672C201.292 53.584 200.845 53.54 200.332 53.54C200.038 53.54 199.723 53.5693 199.386 53.628C199.063 53.6867 198.836 53.738 198.704 53.782V63H196.042V52.044C196.555 51.8533 197.193 51.6773 197.956 51.516C198.733 51.34 199.591 51.252 200.53 51.252C200.706 51.252 200.911 51.2667 201.146 51.296C201.38 51.3107 201.615 51.34 201.85 51.384C202.084 51.4133 202.312 51.4573 202.532 51.516C202.752 51.56 202.928 51.604 203.06 51.648L202.598 53.892ZM204.783 48.458L207.445 48.018V51.494H211.537V53.716H207.445V58.402C207.445 59.326 207.591 59.986 207.885 60.382C208.178 60.778 208.677 60.976 209.381 60.976C209.865 60.976 210.29 60.9247 210.657 60.822C211.038 60.7193 211.339 60.624 211.559 60.536L211.999 62.648C211.691 62.78 211.287 62.912 210.789 63.044C210.29 63.1907 209.703 63.264 209.029 63.264C208.207 63.264 207.518 63.154 206.961 62.934C206.418 62.714 205.985 62.3987 205.663 61.988C205.34 61.5627 205.113 61.0567 204.981 60.47C204.849 59.8687 204.783 59.1867 204.783 58.424V48.458Z" fill="white"/>
</svg>
