<svg width="387" height="52" viewBox="0 0 387 52" fill="none" xmlns="http://www.w3.org/2000/svg">
<circle cx="11.5" cy="11.5" r="11.5" fill="#00BC70"/>
<circle cx="185.5" cy="11.5" r="11.5" fill="#00BC70"/>
<line x1="22.998" y1="11" x2="174.001" y2="11" stroke="#00BC70" stroke-width="2"/>
<line x1="197" y1="11" x2="348.003" y2="11" stroke="#D9D9D9" stroke-width="2"/>
<path d="M139.663 35.388C141.595 35.388 142.987 36.828 142.987 38.76C142.987 40.692 141.595 42.144 139.663 42.144C138.691 42.144 137.839 41.772 137.239 41.136V44.316H136.219V35.52H136.927L137.131 36.516C137.731 35.808 138.619 35.388 139.663 35.388ZM139.591 41.16C140.959 41.16 141.967 40.14 141.967 38.76C141.967 37.392 140.959 36.372 139.591 36.372C138.211 36.372 137.203 37.404 137.203 38.76C137.203 40.128 138.211 41.16 139.591 41.16ZM147.504 35.496H148.08V36.456H147.42C146.232 36.456 145.56 37.224 145.56 38.484V42H144.54V35.52H145.272L145.428 36.516C145.896 35.844 146.568 35.496 147.504 35.496ZM155.029 38.796C155.029 38.916 155.017 39.036 155.005 39.156H149.485C149.641 40.356 150.541 41.148 151.765 41.148C152.665 41.148 153.385 40.728 153.781 40.032H154.861C154.309 41.364 153.169 42.144 151.765 42.144C149.881 42.144 148.465 40.692 148.465 38.76C148.465 36.84 149.881 35.388 151.765 35.388C153.733 35.388 155.029 36.9 155.029 38.796ZM151.765 36.348C150.589 36.348 149.713 37.092 149.509 38.22H154.009C153.793 37.068 152.917 36.348 151.765 36.348ZM159.926 35.568V36.42H157.934V42H156.914V36.42H155.642V35.568H156.914V35.04C156.914 33.66 157.55 32.976 159.002 32.976H159.914V33.804H159.182C158.27 33.804 157.91 34.152 157.91 35.064V35.568H159.926ZM166.959 38.796C166.959 38.916 166.947 39.036 166.935 39.156H161.415C161.571 40.356 162.471 41.148 163.695 41.148C164.595 41.148 165.315 40.728 165.711 40.032H166.791C166.239 41.364 165.099 42.144 163.695 42.144C161.811 42.144 160.395 40.692 160.395 38.76C160.395 36.84 161.811 35.388 163.695 35.388C165.663 35.388 166.959 36.9 166.959 38.796ZM163.695 36.348C162.519 36.348 161.643 37.092 161.439 38.22H165.939C165.723 37.068 164.847 36.348 163.695 36.348ZM171.445 35.496H172.021V36.456H171.361C170.173 36.456 169.501 37.224 169.501 38.484V42H168.481V35.52H169.213L169.369 36.516C169.837 35.844 170.509 35.496 171.445 35.496ZM176.074 35.496H176.65V36.456H175.99C174.802 36.456 174.13 37.224 174.13 38.484V42H173.11V35.52H173.842L173.998 36.516C174.466 35.844 175.138 35.496 176.074 35.496ZM183.6 38.796C183.6 38.916 183.588 39.036 183.576 39.156H178.056C178.212 40.356 179.112 41.148 180.336 41.148C181.236 41.148 181.956 40.728 182.352 40.032H183.432C182.88 41.364 181.74 42.144 180.336 42.144C178.452 42.144 177.036 40.692 177.036 38.76C177.036 36.84 178.452 35.388 180.336 35.388C182.304 35.388 183.6 36.9 183.6 38.796ZM180.336 36.348C179.16 36.348 178.284 37.092 178.08 38.22H182.58C182.364 37.068 181.488 36.348 180.336 36.348ZM190.354 33.216H191.374V42.012H190.582L190.45 41.088C189.85 41.748 188.974 42.144 187.954 42.144C186.01 42.144 184.606 40.692 184.606 38.772C184.606 36.828 186.01 35.388 187.954 35.388C188.914 35.388 189.754 35.748 190.354 36.348V33.216ZM188.026 41.16C189.406 41.16 190.414 40.128 190.414 38.772C190.414 37.404 189.406 36.372 188.026 36.372C186.658 36.372 185.65 37.392 185.65 38.772C185.65 40.14 186.658 41.16 188.026 41.16ZM199.427 42.144C197.507 42.144 196.055 40.692 196.055 38.76C196.055 36.828 197.507 35.388 199.427 35.388C200.975 35.388 202.187 36.3 202.583 37.716H201.563C201.191 36.876 200.387 36.372 199.427 36.372C198.095 36.372 197.099 37.416 197.099 38.76C197.099 40.116 198.107 41.16 199.427 41.16C200.375 41.16 201.167 40.656 201.563 39.792H202.595C202.199 41.22 200.963 42.144 199.427 42.144ZM206.94 42.144C204.972 42.144 203.496 40.704 203.496 38.76C203.496 36.816 204.972 35.388 206.94 35.388C208.896 35.388 210.372 36.828 210.372 38.76C210.372 40.704 208.896 42.144 206.94 42.144ZM206.94 41.16C208.32 41.16 209.328 40.152 209.328 38.772C209.328 37.38 208.32 36.372 206.94 36.372C205.548 36.372 204.54 37.38 204.54 38.76C204.54 40.152 205.548 41.16 206.94 41.16ZM214.682 42.144C212.942 42.144 211.814 41.016 211.814 39.276V35.52H212.834V39.108C212.834 40.38 213.542 41.16 214.682 41.16C215.846 41.16 216.542 40.368 216.542 39.108V35.52H217.562V39.276C217.562 41.016 216.446 42.144 214.682 42.144ZM222.468 35.496H223.044V36.456H222.384C221.196 36.456 220.524 37.224 220.524 38.484V42H219.504V35.52H220.236L220.392 36.516C220.86 35.844 221.532 35.496 222.468 35.496ZM226.138 42.144C224.602 42.144 223.606 41.328 223.546 40.02H224.554C224.602 40.788 225.262 41.208 226.174 41.208C227.062 41.208 227.698 40.824 227.698 40.2C227.698 39.432 226.894 39.288 226.018 39.144C224.914 38.952 223.666 38.724 223.666 37.26C223.666 36.144 224.65 35.388 226.114 35.388C227.578 35.388 228.514 36.168 228.55 37.392H227.59C227.554 36.684 227.002 36.3 226.09 36.3C225.214 36.3 224.662 36.66 224.662 37.224C224.662 37.908 225.406 38.04 226.27 38.172C227.386 38.352 228.706 38.568 228.706 40.152C228.706 41.364 227.674 42.144 226.138 42.144ZM236.299 38.796C236.299 38.916 236.287 39.036 236.275 39.156H230.755C230.911 40.356 231.811 41.148 233.035 41.148C233.935 41.148 234.655 40.728 235.051 40.032H236.131C235.579 41.364 234.439 42.144 233.035 42.144C231.151 42.144 229.735 40.692 229.735 38.76C229.735 36.84 231.151 35.388 233.035 35.388C235.003 35.388 236.299 36.9 236.299 38.796ZM233.035 36.348C231.859 36.348 230.983 37.092 230.779 38.22H235.279C235.063 37.068 234.187 36.348 233.035 36.348Z" fill="#00BC70"/>
<path d="M325.256 35.388C326.624 35.388 327.536 36.408 327.536 37.86V42H326.516V38.184C326.516 37.008 325.976 36.312 325.052 36.312C324.104 36.312 323.324 37.224 323.324 38.412V42H322.316V38.184C322.316 37.008 321.776 36.312 320.84 36.312C319.892 36.312 319.112 37.224 319.112 38.412V42H318.092V35.52H318.824L318.992 36.42C319.496 35.772 320.252 35.388 321.068 35.388C321.992 35.388 322.7 35.856 323.06 36.612C323.54 35.856 324.368 35.388 325.256 35.388ZM335.555 38.796C335.555 38.916 335.543 39.036 335.531 39.156H330.011C330.167 40.356 331.067 41.148 332.291 41.148C333.191 41.148 333.911 40.728 334.307 40.032H335.387C334.835 41.364 333.695 42.144 332.291 42.144C330.407 42.144 328.991 40.692 328.991 38.76C328.991 36.84 330.407 35.388 332.291 35.388C334.259 35.388 335.555 36.9 335.555 38.796ZM332.291 36.348C331.115 36.348 330.239 37.092 330.035 38.22H334.535C334.319 37.068 333.443 36.348 332.291 36.348ZM343.137 38.796C343.137 38.916 343.125 39.036 343.113 39.156H337.593C337.749 40.356 338.649 41.148 339.873 41.148C340.773 41.148 341.493 40.728 341.889 40.032H342.969C342.417 41.364 341.277 42.144 339.873 42.144C337.989 42.144 336.573 40.692 336.573 38.76C336.573 36.84 337.989 35.388 339.873 35.388C341.841 35.388 343.137 36.9 343.137 38.796ZM339.873 36.348C338.697 36.348 337.821 37.092 337.617 38.22H342.117C341.901 37.068 341.025 36.348 339.873 36.348ZM347.276 41.064H347.984V42H347.144C345.752 42 344.888 41.148 344.888 39.744V36.444H343.748V36.264L345.752 34.152H345.908V35.52H347.948V36.444H345.908V39.708C345.908 40.584 346.388 41.064 347.276 41.064ZM354.976 41.064H355.684V42H354.844C353.452 42 352.588 41.148 352.588 39.744V36.444H351.448V36.264L353.452 34.152H353.608V35.52H355.648V36.444H353.608V39.708C353.608 40.584 354.088 41.064 354.976 41.064ZM359.805 42.144C358.065 42.144 356.937 41.016 356.937 39.276V35.52H357.957V39.108C357.957 40.38 358.665 41.16 359.805 41.16C360.969 41.16 361.665 40.368 361.665 39.108V35.52H362.685V39.276C362.685 41.016 361.569 42.144 359.805 42.144ZM367.315 41.064H368.023V42H367.183C365.791 42 364.927 41.148 364.927 39.744V36.444H363.787V36.264L365.791 34.152H365.947V35.52H367.987V36.444H365.947V39.708C365.947 40.584 366.427 41.064 367.315 41.064ZM372.231 42.144C370.263 42.144 368.787 40.704 368.787 38.76C368.787 36.816 370.263 35.388 372.231 35.388C374.187 35.388 375.663 36.828 375.663 38.76C375.663 40.704 374.187 42.144 372.231 42.144ZM372.231 41.16C373.611 41.16 374.619 40.152 374.619 38.772C374.619 37.38 373.611 36.372 372.231 36.372C370.839 36.372 369.831 37.38 369.831 38.76C369.831 40.152 370.839 41.16 372.231 41.16ZM380.177 35.496H380.753V36.456H380.093C378.905 36.456 378.233 37.224 378.233 38.484V42H377.213V35.52H377.945L378.101 36.516C378.569 35.844 379.241 35.496 380.177 35.496ZM383.847 42.144C382.311 42.144 381.315 41.328 381.255 40.02H382.263C382.311 40.788 382.971 41.208 383.883 41.208C384.771 41.208 385.407 40.824 385.407 40.2C385.407 39.432 384.603 39.288 383.727 39.144C382.623 38.952 381.375 38.724 381.375 37.26C381.375 36.144 382.359 35.388 383.823 35.388C385.287 35.388 386.223 36.168 386.259 37.392H385.299C385.263 36.684 384.711 36.3 383.799 36.3C382.923 36.3 382.371 36.66 382.371 37.224C382.371 37.908 383.115 38.04 383.979 38.172C385.095 38.352 386.415 38.568 386.415 40.152C386.415 41.364 385.383 42.144 383.847 42.144Z" fill="#ADA7A7"/>
</svg>
